<svg xmlns="http://www.w3.org/2000/svg" version="1.1" xmlns:xlink="http://www.w3.org/1999/xlink" xmlns:svgjs="http://svgjs.dev/svgjs" viewBox="0 0 25.345424178718257 19.189207024876282"><g transform="matrix(1,0,0,1,1.8342361372106915,16.14597088766559)"><rect width="25.345424178718257" height="19.189207024876282" x="-1.8342361372106915" y="-16.14597088766559" fill="#ffffff"></rect><g><path d=" M 0.267 1.188 L 0.267 0.9239999999999999 L 0.387 0.9239999999999999 L 0.387 0.28049999999999997 L 0.28350000000000003 0.28049999999999997 L 0.252 0.48149999999999993 L 0.0465 0.48149999999999993 L 0.0465 0.022499999999999964 L 1.143 0.022499999999999964 L 1.143 0.48149999999999993 L 0.9375 0.48149999999999993 L 0.906 0.28049999999999997 L 0.7995 0.28049999999999997 L 0.7995 0.9239999999999999 L 0.9195 0.9239999999999999 L 0.9195 1.188 L 0.267 1.188 Z M 1.5306752929687502 1.131 Q 1.39792529296875 1.053 1.32892529296875 0.91575 Q 1.25992529296875 0.7785 1.25992529296875 0.603 Q 1.25992529296875 0.4214999999999999 1.32892529296875 0.2849999999999999 Q 1.39792529296875 0.14849999999999985 1.5299252929687501 0.07424999999999993 Q 1.6619252929687502 0 1.8464252929687501 0 Q 2.03092529296875 0 2.16292529296875 0.07424999999999993 Q 2.2949252929687503 0.14849999999999985 2.36392529296875 0.2849999999999999 Q 2.43292529296875 0.4214999999999999 2.43292529296875 0.603 Q 2.43292529296875 0.7785 2.36392529296875 0.91575 Q 2.2949252929687503 1.053 2.16217529296875 1.131 Q 2.0294252929687504 1.2089999999999999 1.8464252929687501 1.2089999999999999 Q 1.66342529296875 1.2089999999999999 1.5306752929687502 1.131 Z M 1.9679252929687503 0.8534999999999999 Q 2.00992529296875 0.7575 2.00992529296875 0.597 Q 2.00992529296875 0.44099999999999995 1.9694252929687501 0.35024999999999995 Q 1.9289252929687501 0.25949999999999995 1.8464252929687501 0.25949999999999995 Q 1.7639252929687501 0.25949999999999995 1.7234252929687501 0.35024999999999995 Q 1.6829252929687502 0.44099999999999995 1.6829252929687502 0.597 Q 1.6829252929687502 0.7575 1.7249252929687502 0.8534999999999999 Q 1.7669252929687502 0.9494999999999999 1.8464252929687501 0.9494999999999999 Q 1.92592529296875 0.9494999999999999 1.9679252929687503 0.8534999999999999 Z M 2.6263615722656253 0.9299999999999999 L 2.7433615722656253 0.9299999999999999 L 2.7433615722656253 0.28049999999999997 L 2.6263615722656253 0.28049999999999997 L 2.6263615722656253 0.022499999999999964 L 3.374861572265625 0.022499999999999964 Q 3.556361572265625 0.022499999999999964 3.6418615722656256 0.09599999999999986 Q 3.7273615722656253 0.16949999999999998 3.7273615722656253 0.33899999999999997 Q 3.7273615722656253 0.45299999999999996 3.6636115722656255 0.5145 Q 3.5998615722656253 0.576 3.4828615722656253 0.597 Q 3.5878615722656253 0.6134999999999999 3.6343615722656253 0.67575 Q 3.6808615722656253 0.738 3.6808615722656253 0.831 L 3.6808615722656253 0.9255 L 3.8443615722656252 0.9255 L 3.8443615722656252 1.188 L 3.608861572265625 1.188 Q 3.4948615722656253 1.188 3.4453615722656252 1.173 Q 3.395861572265625 1.158 3.369611572265625 1.0905 Q 3.3433615722656254 1.023 3.3433615722656254 0.8654999999999999 Q 3.3433615722656254 0.7754999999999999 3.314111572265625 0.732 Q 3.2848615722656254 0.6884999999999999 3.206861572265625 0.6884999999999999 L 3.1183615722656253 0.6884999999999999 L 3.1183615722656253 0.9299999999999999 L 3.2353615722656253 0.9299999999999999 L 3.2353615722656253 1.188 L 2.6263615722656253 1.188 L 2.6263615722656253 0.9299999999999999 Z M 3.2188615722656255 0.5219999999999999 Q 3.2983615722656254 0.5219999999999999 3.337361572265625 0.49349999999999994 Q 3.3763615722656253 0.46499999999999997 3.3763615722656253 0.3929999999999999 Q 3.3763615722656253 0.3404999999999999 3.336611572265625 0.3104999999999999 Q 3.2968615722656254 0.28049999999999997 3.233861572265625 0.28049999999999997 L 3.1183615722656253 0.28049999999999997 L 3.1183615722656253 0.5219999999999999 L 3.2188615722656255 0.5219999999999999 Z M 3.9447978515625004 0.9299999999999999 L 4.0617978515625 0.9299999999999999 L 4.0617978515625 0.28049999999999997 L 3.9447978515625004 0.28049999999999997 L 3.9447978515625004 0.022499999999999964 L 4.6932978515625 0.022499999999999964 Q 4.874797851562501 0.022499999999999964 4.9602978515625 0.09599999999999986 Q 5.045797851562501 0.16949999999999998 5.045797851562501 0.33899999999999997 Q 5.045797851562501 0.45299999999999996 4.9820478515625 0.5145 Q 4.9182978515625 0.576 4.8012978515625 0.597 Q 4.906297851562501 0.6134999999999999 4.952797851562501 0.67575 Q 4.999297851562501 0.738 4.999297851562501 0.831 L 4.999297851562501 0.9255 L 5.1627978515625 0.9255 L 5.1627978515625 1.188 L 4.9272978515625 1.188 Q 4.8132978515625 1.188 4.763797851562501 1.173 Q 4.714297851562501 1.158 4.688047851562501 1.0905 Q 4.6617978515625005 1.023 4.6617978515625005 0.8654999999999999 Q 4.6617978515625005 0.7754999999999999 4.6325478515625 0.732 Q 4.6032978515625 0.6884999999999999 4.525297851562501 0.6884999999999999 L 4.436797851562501 0.6884999999999999 L 4.436797851562501 0.9299999999999999 L 4.5537978515625 0.9299999999999999 L 4.5537978515625 1.188 L 3.9447978515625004 1.188 L 3.9447978515625004 0.9299999999999999 Z M 4.5372978515625 0.5219999999999999 Q 4.6167978515625006 0.5219999999999999 4.6557978515625 0.49349999999999994 Q 4.6947978515625 0.46499999999999997 4.6947978515625 0.3929999999999999 Q 4.6947978515625 0.3404999999999999 4.6550478515625 0.3104999999999999 Q 4.6152978515625005 0.28049999999999997 4.552297851562501 0.28049999999999997 L 4.436797851562501 0.28049999999999997 L 4.436797851562501 0.5219999999999999 L 4.5372978515625 0.5219999999999999 Z M 5.2392341308593755 1.188 L 5.2392341308593755 0.9299999999999999 L 5.3802341308593755 0.9299999999999999 L 5.3802341308593755 0.28049999999999997 L 5.2392341308593755 0.28049999999999997 L 5.2392341308593755 0.022499999999999964 L 6.2232341308593755 0.022499999999999964 L 6.2232341308593755 0.4859999999999999 L 6.0357341308593755 0.4859999999999999 L 5.9652341308593755 0.28049999999999997 L 5.7552341308593755 0.28049999999999997 L 5.7552341308593755 0.471 L 5.9427341308593755 0.471 L 5.9427341308593755 0.6629999999999999 L 5.7552341308593755 0.6629999999999999 L 5.7552341308593755 0.9299999999999999 L 5.9652341308593755 0.9299999999999999 L 6.0357341308593755 0.6915 L 6.2232341308593755 0.6915 L 6.2232341308593755 1.188 L 5.2392341308593755 1.188 Z M 6.706904296875001 1.18875 Q 6.653654296875001 1.1684999999999999 6.592154296875001 1.1204999999999998 L 6.566654296875001 1.188 L 6.329654296875001 1.188 L 6.329654296875001 0.831 L 6.565154296875001 0.831 Q 6.587654296875001 0.8925 6.634904296875001 0.9179999999999999 Q 6.682154296875001 0.9435 6.751154296875001 0.9435 Q 6.793154296875001 0.9435 6.823154296875001 0.92625 Q 6.853154296875001 0.9089999999999999 6.853154296875001 0.8805 Q 6.853154296875001 0.8444999999999999 6.822404296875001 0.8265 Q 6.791654296875001 0.8085 6.736154296875001 0.7934999999999999 Q 6.595154296875001 0.7545 6.504404296875001 0.7094999999999999 Q 6.413654296875001 0.6645 6.358154296875001 0.5804999999999999 Q 6.3026542968750014 0.49649999999999994 6.3026542968750014 0.35849999999999993 Q 6.3026542968750014 0.2519999999999999 6.348404296875001 0.17099999999999982 Q 6.394154296875001 0.08999999999999986 6.479654296875001 0.04499999999999993 Q 6.565154296875001 0 6.680654296875001 0 Q 6.821654296875002 0 6.904154296875001 0.08999999999999986 L 6.941654296875001 0.020999999999999908 L 7.151654296875001 0.020999999999999908 L 7.151654296875001 0.37049999999999994 L 6.926654296875001 0.37049999999999994 Q 6.895154296875001 0.3044999999999999 6.856904296875001 0.2789999999999999 Q 6.8186542968750015 0.25349999999999995 6.752654296875001 0.25349999999999995 Q 6.7016542968750015 0.25349999999999995 6.673904296875001 0.27149999999999996 Q 6.646154296875001 0.2895 6.646154296875001 0.32099999999999995 Q 6.646154296875001 0.3554999999999999 6.685904296875001 0.37424999999999997 Q 6.7256542968750015 0.3929999999999999 6.799154296875001 0.4095 Q 6.929654296875001 0.4394999999999999 7.020404296875001 0.4837499999999999 Q 7.111154296875001 0.5279999999999999 7.165904296875001 0.6097499999999999 Q 7.220654296875001 0.6915 7.220654296875001 0.8205 Q 7.220654296875001 0.9299999999999999 7.174904296875001 1.0185 Q 7.129154296875001 1.107 7.044404296875001 1.158 Q 6.9596542968750015 1.2089999999999999 6.850154296875001 1.2089999999999999 Q 6.760154296875001 1.2089999999999999 6.706904296875001 1.18875 Z M 7.661570800781251 0.9299999999999999 L 7.778570800781251 0.9299999999999999 L 7.778570800781251 0.28049999999999997 L 7.661570800781251 0.28049999999999997 L 7.661570800781251 0.022499999999999964 L 8.201570800781251 0.022499999999999964 Q 8.519570800781251 0.022499999999999964 8.688320800781252 0.16949999999999998 Q 8.857070800781251 0.3164999999999999 8.857070800781251 0.6044999999999999 Q 8.857070800781251 0.885 8.689070800781252 1.0365 Q 8.521070800781251 1.188 8.200070800781251 1.188 L 7.661570800781251 1.188 L 7.661570800781251 0.9299999999999999 Z M 8.200070800781251 0.9299999999999999 Q 8.32307080078125 0.9299999999999999 8.379320800781251 0.83775 Q 8.435570800781251 0.7454999999999999 8.435570800781251 0.6044999999999999 Q 8.435570800781251 0.4604999999999999 8.380070800781251 0.37049999999999994 Q 8.32457080078125 0.28049999999999997 8.200070800781251 0.28049999999999997 L 8.153570800781251 0.28049999999999997 L 8.153570800781251 0.9299999999999999 L 8.200070800781251 0.9299999999999999 Z M 9.02204296875 1.188 L 9.02204296875 0.9299999999999999 L 9.16304296875 0.9299999999999999 L 9.16304296875 0.28049999999999997 L 9.02204296875 0.28049999999999997 L 9.02204296875 0.022499999999999964 L 10.006042968750002 0.022499999999999964 L 10.006042968750002 0.4859999999999999 L 9.818542968750002 0.4859999999999999 L 9.748042968750001 0.28049999999999997 L 9.538042968750002 0.28049999999999997 L 9.538042968750002 0.471 L 9.725542968750002 0.471 L 9.725542968750002 0.6629999999999999 L 9.538042968750002 0.6629999999999999 L 9.538042968750002 0.9299999999999999 L 9.748042968750001 0.9299999999999999 L 9.818542968750002 0.6915 L 10.006042968750002 0.6915 L 10.006042968750002 1.188 L 9.02204296875 1.188 Z M 10.813703613281252 1.18875 Q 10.760453613281252 1.1684999999999999 10.698953613281253 1.1204999999999998 L 10.673453613281252 1.188 L 10.436453613281252 1.188 L 10.436453613281252 0.831 L 10.671953613281252 0.831 Q 10.694453613281253 0.8925 10.741703613281253 0.9179999999999999 Q 10.788953613281253 0.9435 10.857953613281252 0.9435 Q 10.899953613281252 0.9435 10.929953613281253 0.92625 Q 10.959953613281252 0.9089999999999999 10.959953613281252 0.8805 Q 10.959953613281252 0.8444999999999999 10.929203613281253 0.8265 Q 10.898453613281252 0.8085 10.842953613281253 0.7934999999999999 Q 10.701953613281253 0.7545 10.611203613281251 0.7094999999999999 Q 10.520453613281251 0.6645 10.464953613281253 0.5804999999999999 Q 10.409453613281253 0.49649999999999994 10.409453613281253 0.35849999999999993 Q 10.409453613281253 0.2519999999999999 10.455203613281252 0.17099999999999982 Q 10.500953613281252 0.08999999999999986 10.586453613281252 0.04499999999999993 Q 10.671953613281252 0 10.787453613281253 0 Q 10.928453613281253 0 11.010953613281252 0.08999999999999986 L 11.048453613281252 0.020999999999999908 L 11.258453613281253 0.020999999999999908 L 11.258453613281253 0.37049999999999994 L 11.033453613281253 0.37049999999999994 Q 11.001953613281252 0.3044999999999999 10.963703613281252 0.2789999999999999 Q 10.925453613281253 0.25349999999999995 10.859453613281252 0.25349999999999995 Q 10.808453613281252 0.25349999999999995 10.780703613281252 0.27149999999999996 Q 10.752953613281251 0.2895 10.752953613281251 0.32099999999999995 Q 10.752953613281251 0.3554999999999999 10.792703613281253 0.37424999999999997 Q 10.832453613281253 0.3929999999999999 10.905953613281252 0.4095 Q 11.036453613281251 0.4394999999999999 11.127203613281253 0.4837499999999999 Q 11.217953613281253 0.5279999999999999 11.272703613281251 0.6097499999999999 Q 11.327453613281252 0.6915 11.327453613281252 0.8205 Q 11.327453613281252 0.9299999999999999 11.281703613281252 1.0185 Q 11.235953613281252 1.107 11.151203613281252 1.158 Q 11.066453613281253 1.2089999999999999 10.956953613281252 1.2089999999999999 Q 10.866953613281252 1.2089999999999999 10.813703613281252 1.18875 Z M 11.421879638671877 1.188 L 11.421879638671877 0.9299999999999999 L 11.537379638671878 0.9299999999999999 L 11.738379638671878 0.28049999999999997 L 11.585379638671878 0.28049999999999997 L 11.585379638671878 0.022499999999999964 L 12.311379638671877 0.022499999999999964 L 12.570879638671878 0.9299999999999999 L 12.686379638671877 0.9299999999999999 L 12.686379638671877 1.188 L 12.030879638671877 1.188 L 12.030879638671877 0.9299999999999999 L 12.125379638671877 0.9299999999999999 L 12.093879638671877 0.8054999999999999 L 11.829879638671878 0.8054999999999999 L 11.796879638671879 0.9299999999999999 L 11.936379638671877 0.9299999999999999 L 11.936379638671877 1.188 L 11.421879638671877 1.188 Z M 11.867379638671878 0.6285 L 12.059379638671878 0.6285 L 11.973879638671878 0.27149999999999996 L 11.867379638671878 0.6285 Z M 12.761301269531254 1.188 L 12.761301269531254 0.9255 L 12.879801269531253 0.9255 L 12.879801269531253 0.2789999999999999 L 12.764301269531254 0.2789999999999999 L 12.764301269531254 0.020999999999999908 L 13.302801269531253 0.020999999999999908 L 13.667301269531253 0.714 L 13.667301269531253 0.28049999999999997 L 13.550301269531253 0.28049999999999997 L 13.550301269531253 0.022499999999999964 L 14.016801269531253 0.022499999999999964 L 14.016801269531253 0.28049999999999997 L 13.901301269531253 0.28049999999999997 L 13.901301269531253 1.188 L 13.457301269531253 1.188 L 13.110801269531253 0.5445 L 13.110801269531253 0.9255 L 13.227801269531254 0.9255 L 13.227801269531254 1.188 L 12.761301269531254 1.188 Z M 14.339288818359378 1.188 L 14.339288818359378 0.9239999999999999 L 14.45928881835938 0.9239999999999999 L 14.45928881835938 0.28049999999999997 L 14.355788818359379 0.28049999999999997 L 14.32428881835938 0.48149999999999993 L 14.118788818359379 0.48149999999999993 L 14.118788818359379 0.022499999999999964 L 15.21528881835938 0.022499999999999964 L 15.21528881835938 0.48149999999999993 L 15.009788818359379 0.48149999999999993 L 14.97828881835938 0.28049999999999997 L 14.871788818359379 0.28049999999999997 L 14.871788818359379 0.9239999999999999 L 14.991788818359378 0.9239999999999999 L 14.991788818359378 1.188 L 14.339288818359378 1.188 Z M 15.309714111328129 1.188 L 15.309714111328129 0.9299999999999999 L 15.42521411132813 0.9299999999999999 L 15.62621411132813 0.28049999999999997 L 15.47321411132813 0.28049999999999997 L 15.47321411132813 0.022499999999999964 L 16.19921411132813 0.022499999999999964 L 16.458714111328128 0.9299999999999999 L 16.57421411132813 0.9299999999999999 L 16.57421411132813 1.188 L 15.918714111328129 1.188 L 15.918714111328129 0.9299999999999999 L 16.01321411132813 0.9299999999999999 L 15.98171411132813 0.8054999999999999 L 15.71771411132813 0.8054999999999999 L 15.68471411132813 0.9299999999999999 L 15.824214111328128 0.9299999999999999 L 15.824214111328128 1.188 L 15.309714111328129 1.188 Z M 15.75521411132813 0.6285 L 15.94721411132813 0.6285 L 15.86171411132813 0.27149999999999996 L 15.75521411132813 0.6285 Z M 16.649135742187504 1.188 L 16.649135742187504 0.9255 L 16.767635742187505 0.9255 L 16.767635742187505 0.2789999999999999 L 16.652135742187504 0.2789999999999999 L 16.652135742187504 0.020999999999999908 L 17.190635742187506 0.020999999999999908 L 17.555135742187506 0.714 L 17.555135742187506 0.28049999999999997 L 17.438135742187505 0.28049999999999997 L 17.438135742187505 0.022499999999999964 L 17.904635742187505 0.022499999999999964 L 17.904635742187505 0.28049999999999997 L 17.789135742187504 0.28049999999999997 L 17.789135742187504 1.188 L 17.345135742187505 1.188 L 16.998635742187506 0.5445 L 16.998635742187506 0.9255 L 17.115635742187504 0.9255 L 17.115635742187504 1.188 L 16.649135742187504 1.188 Z M 18.006623291015632 0.9299999999999999 L 18.12362329101563 0.9299999999999999 L 18.12362329101563 0.28049999999999997 L 18.006623291015632 0.28049999999999997 L 18.006623291015632 0.022499999999999964 L 18.54662329101563 0.022499999999999964 Q 18.86462329101563 0.022499999999999964 19.033373291015632 0.16949999999999998 Q 19.20212329101563 0.3164999999999999 19.20212329101563 0.6044999999999999 Q 19.20212329101563 0.885 19.034123291015632 1.0365 Q 18.86612329101563 1.188 18.54512329101563 1.188 L 18.006623291015632 1.188 L 18.006623291015632 0.9299999999999999 Z M 18.54512329101563 0.9299999999999999 Q 18.66812329101563 0.9299999999999999 18.72437329101563 0.83775 Q 18.78062329101563 0.7454999999999999 18.78062329101563 0.6044999999999999 Q 18.78062329101563 0.4604999999999999 18.72512329101563 0.37049999999999994 Q 18.66962329101563 0.28049999999999997 18.54512329101563 0.28049999999999997 L 18.49862329101563 0.28049999999999997 L 18.49862329101563 0.9299999999999999 L 18.54512329101563 0.9299999999999999 Z M 19.36709545898438 1.188 L 19.36709545898438 0.9299999999999999 L 19.508095458984382 0.9299999999999999 L 19.508095458984382 0.28049999999999997 L 19.36709545898438 0.28049999999999997 L 19.36709545898438 0.022499999999999964 L 20.351095458984382 0.022499999999999964 L 20.351095458984382 0.4859999999999999 L 20.163595458984382 0.4859999999999999 L 20.09309545898438 0.28049999999999997 L 19.883095458984382 0.28049999999999997 L 19.883095458984382 0.471 L 20.070595458984382 0.471 L 20.070595458984382 0.6629999999999999 L 19.883095458984382 0.6629999999999999 L 19.883095458984382 0.9299999999999999 L 20.09309545898438 0.9299999999999999 L 20.163595458984382 0.6915 L 20.351095458984382 0.6915 L 20.351095458984382 1.188 L 19.36709545898438 1.188 Z M 20.468015625000007 0.9299999999999999 L 20.585015625000008 0.9299999999999999 L 20.585015625000008 0.28049999999999997 L 20.468015625000007 0.28049999999999997 L 20.468015625000007 0.022499999999999964 L 21.216515625000007 0.022499999999999964 Q 21.398015625000006 0.022499999999999964 21.483515625000006 0.09599999999999986 Q 21.569015625000006 0.16949999999999998 21.569015625000006 0.33899999999999997 Q 21.569015625000006 0.45299999999999996 21.505265625000007 0.5145 Q 21.441515625000008 0.576 21.324515625000007 0.597 Q 21.429515625000008 0.6134999999999999 21.476015625000006 0.67575 Q 21.522515625000008 0.738 21.522515625000008 0.831 L 21.522515625000008 0.9255 L 21.686015625000007 0.9255 L 21.686015625000007 1.188 L 21.45051562500001 1.188 Q 21.336515625000008 1.188 21.287015625000006 1.173 Q 21.237515625000007 1.158 21.211265625000006 1.0905 Q 21.185015625000005 1.023 21.185015625000005 0.8654999999999999 Q 21.185015625000005 0.7754999999999999 21.155765625000008 0.732 Q 21.126515625000007 0.6884999999999999 21.048515625000007 0.6884999999999999 L 20.960015625000008 0.6884999999999999 L 20.960015625000008 0.9299999999999999 L 21.07701562500001 0.9299999999999999 L 21.07701562500001 1.188 L 20.468015625000007 1.188 L 20.468015625000007 0.9299999999999999 Z M 21.060515625000008 0.5219999999999999 Q 21.140015625000007 0.5219999999999999 21.179015625000005 0.49349999999999994 Q 21.218015625000007 0.46499999999999997 21.218015625000007 0.3929999999999999 Q 21.218015625000007 0.3404999999999999 21.178265625000005 0.3104999999999999 Q 21.138515625000007 0.28049999999999997 21.07551562500001 0.28049999999999997 L 20.960015625000008 0.28049999999999997 L 20.960015625000008 0.5219999999999999 L 21.060515625000008 0.5219999999999999 Z" fill="#0e0904" fill-rule="nonzero"></path></g><g></g><g clip-path="url(&quot;#SvgjsClipPath1006&quot;)"><g clip-path="url(&quot;#SvgjsClipPath1000&quot;)"><path d=" M 14.482616953248073 -3.750269693818936 C 14.430670819678507 -3.7502402591680326 14.382980313106726 -3.7789803007932132 14.358738788555272 -3.8249232017317354 L 13.594286867528204 -5.271334917542227 C 13.560225203077337 -5.339410831134074 13.586809714975244 -5.422227487112 13.65412993833557 -5.457759367490683 C 13.72145016169589 -5.493291247869365 13.804824564639176 -5.468511342420252 13.841809904701584 -5.401978556389624 L 14.606215167286202 -3.955566840579136 C 14.629092008411847 -3.9122104491106917 14.627620497377881 -3.8600456965750602 14.602335906903967 -3.818047886803365 C 14.577051316430051 -3.7760500770316696 14.531638597529737 -3.7503399289592085 14.482616953248073 -3.750269693818936 Z" fill="#8c1627" transform="matrix(1,0,0,1,0,0)" fill-rule="nonzero"></path></g><g clip-path="url(&quot;#SvgjsClipPath1000&quot;)"><path d=" M 13.693062790185328 -5.885220044797666 C 13.917956482772636 -5.555998074902218 14.030823255048299 -5.259530331603516 13.98001221122515 -4.930308361708068 C 13.914671647334306 -4.873809044043767 13.831233727475574 -4.84261915495372 13.744853661299828 -4.8424038561407485 C 13.403827105465673 -4.9533109738337 13.153831170842686 -5.3140273923798595 12.838373441468665 -5.733580106849791 Z" fill="#0e0904" transform="matrix(1,0,0,1,0,0)" fill-rule="evenodd"></path></g><g clip-path="url(&quot;#SvgjsClipPath1000&quot;)"><path d=" M 13.147345647342764 -3.750269693818936 C 13.097092000918206 -3.75021650988902 13.050666384779802 -3.777106682642758 13.025707087887346 -3.820723941911641 L 12.393485192750825 -4.92540922525129 C 12.355517280711783 -4.992455364800449 12.37887351616405 -5.077579593265762 12.445741059768322 -5.115861165665288 C 12.512608603372595 -5.154142738064815 12.597841309876982 -5.131185522461566 12.636435702564544 -5.064498042181322 L 13.268657597701063 -3.959812758841677 C 13.293455331829922 -3.9165165547524285 13.293331636679618 -3.8632937584079645 13.268332922027453 -3.8201132862914733 C 13.243334207375288 -3.776932814174984 13.19724039640187 -3.7503237566726693 13.147345647342764 -3.7502696938189395 Z" fill="#8c1627" transform="matrix(1,0,0,1,0,0)" fill-rule="nonzero"></path></g><g clip-path="url(&quot;#SvgjsClipPath1000&quot;)"><path d=" M 12.649780017103955 -5.416862599529738 C 12.874673709691264 -5.087593971191847 12.98740050663959 -4.791172886335588 12.936636121258887 -4.461904257997697 C 12.871360574075476 -4.405362909368051 12.787929462702971 -4.374179744875308 12.70157088821846 -4.374046410872818 C 12.360544332384304 -4.484766894795989 12.110455080876424 -4.845296679572366 11.795090668387292 -5.264896052484746 Z" fill="#0e0904" transform="matrix(1,0,0,1,0,0)" fill-rule="evenodd"></path></g><g clip-path="url(&quot;#SvgjsClipPath1000&quot;)"><path d=" M 15.283742410037302 -2.8868552163649657 C 15.211549444282351 -2.8869251204675486 15.151251597231926 -2.9418883054464864 15.144513617779932 -3.0137661798167237 C 15.081991304902964 -3.680515322362915 14.791449183794835 -3.7842836983617065 14.27759975714255 -3.742851001470102 C 14.22740256549403 -3.738171967507528 14.178567228309465 -3.760848213507682 14.149751536167921 -3.8022161635973912 C 14.120935844026377 -3.843584113687104 14.116592161082723 -3.897251931875237 14.138380013642637 -3.942715553475905 C 14.160167866202553 -3.9881791750765707 14.204720774180368 -4.018413934564778 14.255017070998928 -4.0218684872941886 C 14.752536042795292 -4.062041406239764 15.334366820090672 -3.986734680132729 15.423297811391793 -3.039894907586204 C 15.42676389814946 -3.002931763593091 15.41540385608621 -2.966105708398862 15.391716956085471 -2.9375186739317716 C 15.368030056084734 -2.908931639464683 15.333956770744777 -2.890925525975394 15.296993407691826 -2.8874617761167585 C 15.292560855659502 -2.8870418501347483 15.288174962069625 -2.8868552163649657 15.283742410037302 -2.8868552163649657 Z" fill="#8c1627" transform="matrix(1,0,0,1,0,0)" fill-rule="nonzero"></path></g><g clip-path="url(&quot;#SvgjsClipPath1000&quot;)"><path d=" M 13.958176060160659 -2.886761899480076 C 13.885983094405708 -2.886831803582659 13.825685247355283 -2.941794988561597 13.818947267903287 -3.0136728629318306 C 13.756331638141427 -3.680375347035575 13.465836175475749 -3.784097064591924 12.952033407265906 -3.7427110261427643 C 12.875572498918897 -3.7374593822578053 12.809105672003568 -3.7946739210744784 12.802922835194751 -3.871065169249512 C 12.796739998385936 -3.947456417424549 12.853140473396484 -4.014615400076023 12.929450721122285 -4.021728511966854 C 13.426969692918645 -4.061761455585092 14.00875381177158 -3.986641363247836 14.09773146151515 -3.0398015907013143 C 14.101197548272816 -3.0028384467082 14.089837506209566 -2.966012391513969 14.066150606208826 -2.9374253570468802 C 14.04246370620809 -2.90883832257979 14.008390420868134 -2.8908322090905045 13.971427057815182 -2.8873684592318654 C 13.966994505782857 -2.8869485332498552 13.962515295308087 -2.886761899480076 13.958176060160659 -2.886761899480076 Z" fill="#8c1627" transform="matrix(1,0,0,1,0,0)" fill-rule="nonzero"></path></g><g clip-path="url(&quot;#SvgjsClipPath1000&quot;)"><path d=" M 20.124369179988108 -3.7653870291712774 L 6.713566360090373 -3.7653870291712774 C 6.525513212431272 -5.124686899763619 5.327734832647732 -6.113471480640452 3.9574233270961012 -6.0406257375276144 C 2.58711182154447 -5.9677799944147765 1.5009154713254134 -4.857579344429624 1.458035666032226 -3.486003080842776 C 1.4151558607390389 -2.1144268172559286 2.429882044269503 -0.938544694373558 3.7929671928809365 -0.7802443400726791 C 5.156052341492371 -0.6219439857717965 6.413256315198002 -1.5339780657027084 6.685851245277747 -2.8788766227067875 L 16.659933169967317 -2.8788766227067875 L 16.659933169967317 -1.7939278605215812 C 16.660138767759413 -1.6471312528377364 16.779089684222868 -1.528180336374307 16.925886291906693 -1.5279747385822375 L 17.312778096664744 -1.5279747385822375 C 17.45958534430099 -1.528154696885558 17.57855126030077 -1.6471206128853364 17.578731218604084 -1.7939278605215847 L 17.578731218604084 -2.878969939591677 L 17.958997524534908 -2.878969939591677 L 17.958997524534908 -2.149418533513842 C 17.959151826178278 -2.002600641427806 18.0781327543882 -1.8836197132178718 18.224950646474248 -1.8834654115744964 L 18.61184245123234 -1.8834654115744964 C 18.75866034331839 -1.8836197132178665 18.87764127152832 -2.0026006414277937 18.87779557317169 -2.149418533513842 L 18.87779557317169 -2.878969939591677 L 19.30518690597247 -2.878969939591677 L 19.30518690597247 -1.7939278605215812 C 19.30536686427577 -1.6471206128853684 19.42433278027554 -1.5281546968855704 19.57114002791178 -1.5279747385822375 L 19.958078491112346 -1.5279747385822375 C 20.104885738748585 -1.528154696885558 20.223851654748366 -1.6471206128853364 20.224031613051686 -1.7939278605215847 L 20.224031613051686 -3.66493140258612 C 20.223957258999675 -3.7200718585742862 20.17950731403789 -3.7648755718246303 20.124369179988115 -3.7653870291712774 Z M 4.0953278622611595 -1.7641597742413566 C 3.431327131348417 -1.7641597745095314 2.8327090646334283 -2.164146655438543 2.578611344821173 -2.7776051458344906 C 2.324513625008918 -3.3910636362304327 2.4649771182412556 -4.097181970351478 2.934503209983071 -4.566694717597294 C 3.404029301724886 -5.036207464843109 4.11015162775881 -5.176650889001563 4.723602896041678 -4.922535733816364 C 5.337054164324545 -4.668420578631162 5.73702403140511 -4.069791143888379 5.737005159706065 -3.4057904132438157 C 5.736593198707159 -2.4992953231492407 5.001822963698448 -1.764545971193849 4.095327862261286 -1.7641597742413566 Z" fill="#0e0904" transform="matrix(1,0,0,1,0,0)" fill-rule="evenodd"></path></g><g clip-path="url(&quot;#SvgjsClipPath1000&quot;)"><path d=" M 13.9919567724912 -5.4932891282554674 C 14.216850465078508 -5.164067158360021 14.329577262026834 -4.867599415061317 14.278812876646132 -4.538377445165871 C 14.213531057568057 -4.48184103711408 14.130107657551934 -4.450644195980621 14.043747643605705 -4.450472939598551 C 13.702721087771547 -4.561240081964167 13.45263183626367 -4.922003158952769 13.137267423774537 -5.341322581210475 Z" fill="#0e0904" transform="matrix(1,0,0,1,0,0)" fill-rule="evenodd"></path></g><g clip-path="url(&quot;#SvgjsClipPath1000&quot;)"><path d=" M 17.01705688844517 -13.415099461979734 L 18.87835547448104 -12.978283123804966 L 16.95066192484522 -12.550751815676852 L 16.53274225586088 -12.816704937616201 Z" fill="#8c1627" transform="matrix(1,0,0,1,0,0)" fill-rule="evenodd"></path></g><g clip-path="url(&quot;#SvgjsClipPath1000&quot;)"><path d=" M 17.21386219868029 -10.145695741381129 C 17.02769501332274 -10.634162975343063 16.907036281158682 -11.05450888333457 16.98056998645279 -11.60181241322028 C 17.026201943164487 -11.941065948241508 17.05055765012104 -12.283492257349032 17.33830026468243 -12.622559158600478 L 17.02666852758894 -12.7503566324587 L 17.197625060709253 -12.854778226651728 L 16.950801900172557 -13.00674477369672 C 17.149800157202613 -13.108180227573238 17.293134892395187 -13.223939823280523 17.28762919618662 -13.376606246962197 C 16.48664371472473 -14.486050691431288 13.87582390924435 -15.280737283163038 12.271846633295407 -11.684864440773271 C 10.925004033663615 -10.533754007200347 10.531113462538707 -9.729269142555044 9.933652107024084 -8.579558462255488 C 9.440099102835589 -7.62973254939245 9.061745793045032 -6.369161409842388 8.864800507482578 -5.44733056244665 L 8.821174863796035 -5.299096690797297 C 8.733783601095615 -4.904739535247934 7.996486893571828 -3.1312987963369388 7.748497271973998 -2.6991016439642745 C 7.475732017437607 -2.22318553102018 7.144270442304777 -1.616065877919338 6.930574775904389 -0.8757363716365969 C 6.706054350856645 -0.09215448920687486 7.253077930087683 -0.009522387635895413 7.8710223418358805 -0.8273049083781672 C 8.050424053038824 -0.7167710582247757 8.219747540673543 -0.7006738955810796 8.380952459322746 -0.7688418799939551 C 8.58121049429883 -0.8534802945900939 8.755573093717661 -1.0844395846953159 8.880197793489591 -1.2893634639159526 C 9.111157083594815 -1.6700963542712302 9.11349000571709 -2.129682012359398 9.304789619743637 -2.5491414099444434 C 9.479992071126489 -2.9334670003680205 10.093690564612146 -4.219513649493329 10.530880170326478 -4.943512700920147 C 10.544877703060127 -4.952284488099902 10.558408651369323 -4.9610096168372095 10.572499500987862 -4.96982806245941 C 12.683560729434495 -4.402741352976804 15.709267405140256 -4.200243712763337 17.096609532814742 -6.85361601775401 C 17.49941186644675 -7.624413486953665 17.730884399418862 -8.788494967526434 17.21386219868029 -10.145695741381129 Z" fill="#0e0904" transform="matrix(1,0,0,1,0,0)" fill-rule="evenodd"></path></g><g clip-path="url(&quot;#SvgjsClipPath1000&quot;)"><path d=" M 15.456985206837443 -13.38453818217793 C 15.352979692813413 -13.384538180465688 15.259216108618654 -13.321884278245763 15.21941928169866 -13.225793906644325 C 15.179622454778665 -13.129703535042887 15.201630359331583 -13.01910166651608 15.275180036264318 -12.945565335559927 C 15.348729713197052 -12.872029004603775 15.459335573715295 -12.850041171526133 15.55541872173531 -12.889855435477216 C 15.651501869755322 -12.9296696994283 15.71413875550335 -13.023444651991444 15.714119883154591 -13.127450164303228 C 15.71399122530909 -13.269400845403576 15.598935908948187 -13.384435284370834 15.456985206837441 -13.38453818217793 Z" fill="#8c1627" transform="matrix(1,0,0,1,0,0)" fill-rule="evenodd"></path></g><g clip-path="url(&quot;#SvgjsClipPath1000&quot;)"><path d=" M 15.456985206837443 -13.344971822984148 C 15.368982791339274 -13.344971820960506 15.28964653771922 -13.291957952451385 15.255973831727168 -13.210652515949972 C 15.222301125735118 -13.129347079448559 15.24092390078563 -13.035763407570467 15.303157678335296 -12.973542976316653 C 15.36539145588496 -12.911322545062836 15.458979119771428 -12.89271984200544 15.540277332374785 -12.926409985386131 C 15.62157554497814 -12.960100128766825 15.674572396449655 -13.039447750828703 15.674553523960808 -13.127450164303228 C 15.674424899854124 -13.247548955341083 15.57708402269994 -13.344868957333965 15.456985206837446 -13.344971822984148 Z" fill="#0e0904" transform="matrix(1,0,0,1,0,0)" fill-rule="evenodd"></path></g><g clip-path="url(&quot;#SvgjsClipPath1000&quot;)"><path d=" M 15.458291643225914 -13.2583737538053 C 15.458184450668083 -13.241314424939127 15.453941703505361 -13.224535560688054 15.44592715597786 -13.209475706122417 C 15.425724050398957 -13.175275067809865 15.35125717625594 -13.192678666842037 15.32928104986411 -13.215074719215878 C 15.305391927332014 -13.272511261866287 15.410280105949496 -13.29290100121497 15.447653518348341 -13.289308301146667 C 15.455634029122455 -13.281098396637974 15.459534728423405 -13.269755573670745 15.458291643225914 -13.2583737538053 Z" fill="#bfbe5f" transform="matrix(1,0,0,1,0,0)" fill-rule="evenodd"></path></g><g clip-path="url(&quot;#SvgjsClipPath1000&quot;)"><path d=" M 15.545123004616993 -13.261546527891594 C 15.55095530992268 -13.256880683647044 15.550861993037788 -13.247035752291044 15.551655186559362 -13.240036985924219 C 15.556321030803913 -13.200703918942663 15.506023229847663 -13.200470626730436 15.492725573750697 -13.210502191856218 C 15.482087448873122 -13.218947369938853 15.48036108650264 -13.250581793916902 15.480594378714867 -13.264812618862779 C 15.486540362466803 -13.271397483583558 15.493016497254985 -13.277483489770042 15.499957632329751 -13.283009411416524 C 15.507889567545487 -13.286508794599937 15.546989342314813 -13.276803838571272 15.544749737077428 -13.261873136988713 Z" fill="#bfbe5f" transform="matrix(1,0,0,1,0,0)" fill-rule="evenodd"></path></g></g></g><defs><clipPath id="SvgjsClipPath1006"><path d=" M 1.4520804392811595 -14.3117347504549 h 18.772791025734556 v 14.0617347504549 h -18.772791025734556 Z"></path></clipPath><clipPath id="SvgjsClipPath1000"><path d=" M 1.4520804392811595 -14.3117347504549 L 20.224871465015717 -14.3117347504549 L 20.224871465015717 -0.24999999999999822 L 1.4520804392811595 -0.24999999999999822 Z"></path></clipPath></defs></svg>