<svg xmlns="http://www.w3.org/2000/svg" version="1.1" xmlns:xlink="http://www.w3.org/1999/xlink" xmlns:svgjs="http://svgjs.dev/svgjs" viewBox="0 0 14.522446427446484 14.522446427446484"><g transform="matrix(1,0,0,1,4.3745920001295495,4.620156569751067)"><rect width="14.522446427446484" height="14.522446427446484" x="-4.3745920001295495" y="-4.620156569751067" fill="#ffffff"></rect><g><path d=" M -1.7930853781471723 1.3857661233636522 Q -1.8885940355816857 1.4327698078474962 -2.029771993877458 1.388353773676972 L -2.4141957586963514 1.2674101130639905 L -2.39889023340786 1.218760951759366 L -2.016374278836207 1.3391043956943676 Q -1.893320517889216 1.3778183714240813 -1.814564197977119 1.3407449028258582 Q -1.7358078780650221 1.3036714342276352 -1.7021957440981388 1.1968340603821859 Q -1.6688837184702456 1.0909505916603566 -1.7122272543815193 1.0154632556714098 Q -1.755570790292793 0.9399759196824632 -1.8786245512397837 0.9012619439527495 L -2.2611405058114373 0.7809185000177481 L -2.245834980522946 0.7322693387131238 L -1.861411215704052 0.8532129993261053 Q -1.7202332574082797 0.8976290334966295 -1.6689905799747955 0.9913263547467479 Q -1.617747902541311 1.085023675996866 -1.657662311626985 1.2118930574383373 Q -1.6975767207126589 1.3387624388798083 -1.7930853781471723 1.3857661233636522 Z M -1.832482382885791 -0.13710348289333307 L -1.2115869319161578 0.186143851148598 L -1.2309817719586738 0.22339757820677597 L -1.9905437898551568 0.3657300796568059 L -1.451251741012961 0.6464934783675118 L -1.4748026182074447 0.6917301469381565 L -2.095698069177078 0.3684828128962253 L -2.075841447228788 0.3303420923366621 L -1.316741211238079 0.18889658438801749 L -1.8560332600802747 -0.0918668143226884 L -1.832482382885791 -0.13710348289333307 Z M -1.616212426998736 -0.4759999659652272 L -1.4466719876030394 -0.6950548435861426 Q -1.379957518671159 -0.7812533333358891 -1.29265197129976 -0.820534262527806 Q -1.2053464239283609 -0.859815191719723 -1.113710093883377 -0.8483246296844348 Q -1.0220737638383932 -0.8368340676491466 -0.9422017687491786 -0.7750160735012572 Q -0.862329773659964 -0.713198079353368 -0.8282270223268773 -0.6273712050568305 Q -0.7941242709937905 -0.5415443307602931 -0.8102567534342062 -0.4471780602484747 Q -0.8263892358746219 -0.35281178973665633 -0.8931037048065024 -0.26661329998690986 L -1.0626441442021988 -0.047558422365994474 L -1.616212426998736 -0.4759999659652272 Z M -0.9319292864965562 -0.2916047826645935 Q -0.8725595297406625 -0.3683135304235422 -0.8577133935425532 -0.4503978909314196 Q -0.8428672573444438 -0.5324822514392971 -0.8729508998715748 -0.6063468197538807 Q -0.9030345423987058 -0.6802113880684643 -0.9734167954971227 -0.7346846700403666 Q -1.0437990485955395 -0.7891579520122691 -1.1228474389625829 -0.7997575737215343 Q -1.2018958293296262 -0.8103571954307994 -1.2776344766353547 -0.7754014047188376 Q -1.3533731239410831 -0.7404456140068758 -1.4127428806969768 -0.663736866247927 L -1.5486200559527337 -0.48817663941816813 L -1.0678064617523129 -0.11604455583483461 L -0.9319292864965562 -0.2916047826645935 Z M -0.1924403687362392 -1.0702869401239048 L -0.16112942372542993 -1.036587908646278 L -0.5149692542405107 -0.7078229860327805 L -0.9914401565789128 -1.2206343346053612 L -0.6485891406761017 -1.5391891664544644 L -0.6172781956652924 -1.5054901349768377 L -0.9227672418863869 -1.2216496117266753 L -0.7349015718215312 -1.019455422860915 L -0.4616463817964275 -1.2733463465355206 L -0.4310161095032445 -1.2403799026987117 L -0.7042712995283482 -0.986488979024106 L -0.5089182295696033 -0.7762363261093479 L -0.1924403687362392 -1.0702869401239048 Z M 0.41362104742263706 -1.443848881583385 L 0.14402692435770906 -1.5436687634148742 Q 0.11622140556457516 -1.518751838952881 0.09057215639145211 -1.5013416115892007 L -0.07490687053192246 -1.389017564081585 L 0.05370416386429738 -1.1995440782543212 L 0.011507011998836872 -1.170901446139879 L -0.3816271542778177 -1.75007804037169 L -0.17395097548898258 -1.8910447199937477 Q -0.06473481771955542 -1.9651785913487738 0.0324210822228399 -1.9555879132505751 Q 0.12957698216523517 -1.9459972351523764 0.19191682853196185 -1.8541563752099037 Q 0.2385313082476223 -1.785482579036703 0.23509855844730665 -1.7148658938354815 Q 0.231665808646991 -1.64424920863426 0.1792188584756338 -1.5808511217725636 L 0.46160996523041564 -1.4764228553605936 L 0.41362104742263706 -1.443848881583385 Z M 0.0652992457022386 -1.53857439264696 Q 0.1579675007793283 -1.6014758592512246 0.17898361196358897 -1.6755675124295064 Q 0.19999972314784958 -1.7496591656077882 0.1488922815318845 -1.8249521228579235 Q 0.09778483991591941 -1.900245080108059 0.021168325215389083 -1.9080655452568476 Q -0.0554481894851413 -1.9158860104056363 -0.148116444562231 -1.8529845438013715 L -0.31359547148560557 -1.740660496293756 L -0.10017978122113597 -1.4262503451393442 L 0.0652992457022386 -1.53857439264696 Z M 0.9928009143121455 -1.7816974403061046 Q 0.8991230460222239 -1.7938097065125636 0.8249636169156838 -1.8514085699960736 Q 0.7508041878091436 -1.9090074334795837 0.7133358454168484 -2.002800414658208 Q 0.6758675030245531 -2.096593395836832 0.6899291948285999 -2.189434759590323 Q 0.7039908866326468 -2.282276123343814 0.7635391757137449 -2.3555990479139233 Q 0.823087464794843 -2.4289219724840327 0.9187377327294793 -2.467132262250433 Q 0.9893146294579489 -2.4953262624664174 1.057836660983129 -2.4963168156766216 Q 1.126358692508309 -2.4973073688868253 1.1859543814971034 -2.469426302659888 L 1.168479925073636 -2.4269099132000065 Q 1.0596830652957654 -2.4728255238621153 0.9380307827769558 -2.4242279708582473 Q 0.856310165512412 -2.3915822863976337 0.8042867897780643 -2.3277264458096116 Q 0.7522634140437165 -2.2638706052215896 0.7403426804826594 -2.1831913259030045 Q 0.7284219469216022 -2.1025120465844194 0.7606966576951635 -2.0217200726978817 Q 0.7929713684687247 -1.9409280988113442 0.8571993919041743 -1.890668661831058 Q 0.9214274153396238 -1.840409224850772 1.0031286860381659 -1.8299735951982996 Q 1.0848299567367077 -1.8195379655458273 1.1665505740012516 -1.852183650006441 Q 1.2872742131420547 -1.9004102293232568 1.335047110560176 -2.009949036475232 L 1.377005830329104 -1.991174962986706 Q 1.3530236152973423 -1.92990626492505 1.3024004595922545 -1.882762377660014 Q 1.2517773038871667 -1.835618490394978 1.1821290505367033 -1.8077954638660456 Q 1.0864787826020668 -1.7695851740996456 0.9928009143121455 -1.7816974403061046 Z M 1.6926905160118013 -2.0223465347538885 Q 1.6017645083428511 -2.0503413758748166 1.5382845600937376 -2.119533472029579 Q 1.4748046118446243 -2.1887255681843416 1.4537634568265974 -2.2864868580464712 Q 1.4327223018085706 -2.3842481479086013 1.4621155789284805 -2.473429341330489 Q 1.4915088560483905 -2.562610534752377 1.5628665895505758 -2.62553369320323 Q 1.634224323052761 -2.6884568516540823 1.734918451610755 -2.71012924132265 Q 1.8356125801687484 -2.7318016309912174 1.9264333820626085 -2.7042955963196 Q 2.0172541839564686 -2.6767895616479827 2.080734132205582 -2.60759746549322 Q 2.144214080454695 -2.5384053693384576 2.1654656470229026 -2.4396664665777066 Q 2.1867172135911095 -2.3409275638169555 2.1573239364711996 -2.2517463703950673 Q 2.1279306593512897 -2.1625651769731795 2.0564677200740142 -2.1001308249716377 Q 1.9850047807967388 -2.037696472970096 1.8843106522387452 -2.016024083301528 Q 1.7836165236807515 -1.9943516936329606 1.6926905160118013 -2.0223465347538885 Z M 2.021445298253848 -2.1345318419602437 Q 2.0824393520487496 -2.1885755779678946 2.107687466604514 -2.2661241608780873 Q 2.1329355811602784 -2.3436727437882796 2.1146297762945947 -2.4287250659683326 Q 2.0963239714289115 -2.5137773881483856 2.0414078282977295 -2.574072223943796 Q 1.9864916851665475 -2.6343670597392066 1.9086647073572245 -2.6585323556212597 Q 1.8308377295479017 -2.6826976515033123 1.7448077944692275 -2.664181435087449 Q 1.6587778593905531 -2.645665218671585 1.597294999146341 -2.5915162768888442 Q 1.535812138902129 -2.537367335106103 1.5105640243463647 -2.4598187521959103 Q 1.4853159097906004 -2.382270169285718 1.5036217146562836 -2.297217847105665 Q 1.521927519521967 -2.212165524925612 1.576843662653149 -2.1518706891302015 Q 1.6317598057843312 -2.091575853334791 1.7100755900429647 -2.0675157632278283 Q 1.7883913743015984 -2.0434556731208655 1.8744213093802726 -2.0619718895367294 Q 1.9604512444589468 -2.080488105952593 2.021445298253848 -2.1345318419602437 Z M 2.996080975776951 -2.8339934597932137 L 3.018534957114161 -2.134353681963145 L 2.9765565704443566 -2.133006443082912 L 2.480299149475833 -2.7253927799726734 L 2.4998020361230098 -2.1177056586574134 L 2.448828280881105 -2.1160697257314167 L 2.4263742995438946 -2.815709503561486 L 2.469352171610599 -2.8170888195579145 L 2.9646101071822226 -2.224670405551957 L 2.9451072205350455 -2.8323575268672174 L 2.996080975776951 -2.8339934597932137 Z M 3.3343370654422966 -2.130250928093353 Q 3.2686054205645756 -2.1650625764552043 3.2350423692851007 -2.21152246871521 L 3.2625228086787508 -2.2464198246427287 Q 3.294468299527044 -2.203182275978846 3.3534975559618627 -2.1712128079702535 Q 3.412526812396681 -2.139243339961661 3.481007463465955 -2.1307934624993305 Q 3.5802547838562067 -2.118547263278561 3.635524472959127 -2.1500156834242645 Q 3.6907941620620477 -2.181484103569968 3.698264343586717 -2.242024969008021 Q 3.7040200572204784 -2.288671209591439 3.680652216496926 -2.3197669330903175 Q 3.6572843757733735 -2.3508626565891957 3.619422377500388 -2.370648234336041 Q 3.581560379227403 -2.3904338120828865 3.516031593237355 -2.4146407988154497 Q 3.4419379343888075 -2.4429273630895896 3.397992246267079 -2.4664863633974927 Q 3.3540465581453502 -2.490045363705396 3.326383503726307 -2.53124312359849 Q 3.2987204493072637 -2.572440883491584 3.3064355548163484 -2.6349666953374427 Q 3.3126811164189407 -2.685582828736471 3.3446825275931356 -2.72445646611272 Q 3.3766839387673304 -2.7633301034889692 3.434827751389112 -2.7813452930190055 Q 3.4929715640108943 -2.7993604825490417 3.575346839934803 -2.7891961371958027 Q 3.632910285761149 -2.782093341647757 3.686406931312159 -2.7583634256177834 Q 3.7399035768631688 -2.73463350958781 3.777043580449149 -2.7008308449941216 L 3.7531656478944857 -2.6624662214860644 Q 3.7150331711046034 -2.6963913480719603 3.6667502041906417 -2.7174627767369866 Q 3.61846723727668 -2.7385342054020128 3.5698360502854567 -2.74453484302019 Q 3.473566149506913 -2.756413656264336 3.419166471615687 -2.7238303009225224 Q 3.364766793724461 -2.691246945580709 3.3571741502075843 -2.6297136069387532 Q 3.351418436573823 -2.5830673663553347 3.3747862772973756 -2.5519716428564565 Q 3.398154118020928 -2.5208759193575787 3.436016116293913 -2.501090341610733 Q 3.473878114566898 -2.481304763863888 3.540276911768641 -2.455982841935214 Q 3.6143705706171887 -2.427696277661074 3.657820022136966 -2.404198508349275 Q 3.701269473656743 -2.3807007390374757 3.7290549900679943 -2.340495452348284 Q 3.756840506479245 -2.300290165659092 3.7492478629623682 -2.2387568270171365 Q 3.743002301359776 -2.188140693618108 3.710565884579734 -2.149824523839914 Q 3.6781294677996916 -2.11150835406172 3.6184969453720557 -2.0936768575199953 Q 3.55886442294442 -2.075845360978271 3.4764891470205113 -2.0860097063315095 Q 3.4000687103200176 -2.095439279731502 3.3343370654422966 -2.130250928093353 Z M 4.21041525673056 -2.6176656941755034 L 3.966331092731556 -2.680330843061529 L 3.9777699691155135 -2.724885888870871 L 4.515336282684746 -2.5868733585861716 L 4.503897406300789 -2.5423183127768296 L 4.259813242301786 -2.6049834616628553 L 4.097182260669005 -1.9715269408082998 L 4.047784275097778 -1.984209173320948 L 4.21041525673056 -2.6176656941755034 Z M 4.939980043412369 -1.6700901284025573 L 4.875194508814948 -1.9501755341396756 Q 4.8390959971147725 -1.9597095497171928 4.810453801630135 -1.9715680756719556 L 4.625665443664728 -2.048074694734941 L 4.53806536483761 -1.83649202486455 L 4.490944333556431 -1.8560012127256114 L 4.758717500276879 -2.502760465604535 L 4.990626889523465 -2.406744658680488 Q 5.112587205780633 -2.356250290098918 5.157974521560478 -2.269813946086109 Q 5.2033618373403225 -2.1833776020733 5.160900663760366 -2.0808200634024994 Q 5.129150416849227 -2.0041328948468555 5.0682697708962845 -1.9681878402725124 Q 5.007389124943343 -1.9322427856981694 4.925599462354763 -1.9412122390620268 L 4.993568667222338 -1.6479032088742915 L 4.939980043412369 -1.6700901284025573 Z M 4.827667790919307 -2.013145456214172 Q 4.931149271379934 -1.9703017495389004 5.004597225197818 -1.9934674155117578 Q 5.078045179015701 -2.016633081484615 5.11285569068936 -2.100711784358875 Q 5.147666202363018 -2.184790487233135 5.112089024981312 -2.2530950584531544 Q 5.0765118475996065 -2.3213996296731727 4.973030367138978 -2.3642433363484447 L 4.788242009173572 -2.44074995541143 L 4.6428794329539 -2.089652075277157 L 4.827667790919307 -2.013145456214172 Z M 5.2736506605940034 -1.5752901881397723 Q 5.252057507360213 -1.6795254304209801 5.330406797269332 -1.805085729762519 L 5.543749796143487 -2.1469830313479252 L 5.587017196592261 -2.119984289554918 L 5.374732971906067 -1.7797837487714243 Q 5.306442036782578 -1.670342677048056 5.322615706424248 -1.5848124928419987 Q 5.338789376065918 -1.499282308635941 5.433807980973029 -1.4399909541101215 Q 5.527978205479183 -1.381228986678282 5.611913423150361 -1.4042914937946365 Q 5.69584864082154 -1.427354000910991 5.764139575945029 -1.5367950726343593 L 5.976423800631222 -1.876995613417853 L 6.019691201079996 -1.8499968716248456 L 5.806348202205841 -1.5080995700394393 Q 5.727998912296722 -1.3825392706979005 5.624455956389451 -1.3563886247788217 Q 5.520913000482181 -1.3302379788597427 5.408078407154988 -1.4006464623591537 Q 5.295243813827794 -1.4710549458585647 5.2736506605940034 -1.5752901881397723 Z M 5.973992340484159 -1.0489673882105617 Q 5.942464739453184 -1.138008167481813 5.960334702387524 -1.2301923007408795 Q 5.978204665321862 -1.322376433999946 6.044942882575111 -1.39818547276089 Q 6.111681099828358 -1.473994511521834 6.200856594270515 -1.5034050740971525 Q 6.290032088712673 -1.5328156366724712 6.382350937142646 -1.5128286352824758 Q 6.474669785572619 -1.4928416338924806 6.551979993417938 -1.4247818677827329 Q 6.609024418624193 -1.3745630112357343 6.640872855832073 -1.3138841265441403 Q 6.672721293039952 -1.2532052418525466 6.674780424882393 -1.1874423345562946 L 6.628956163400142 -1.1838178263681043 Q 6.620751339401135 -1.30162139534267 6.5224247643745645 -1.3881828454434173 Q 6.456373324662058 -1.4463309951294154 6.375900260494555 -1.4638833722759115 Q 6.295427196327052 -1.4814357494224073 6.218068632905737 -1.4556112907564331 Q 6.140710069484424 -1.4297868320904592 6.083222694226676 -1.3644859769201412 Q 6.025735318968928 -1.2991851217498231 6.009924688006994 -1.2191771599673507 Q 5.994114057045061 -1.1391691981848784 6.021725166952566 -1.0615700576633775 Q 6.049336276860072 -0.9839709171418765 6.115387716572577 -0.9258227674558783 Q 6.212963707056961 -0.8399220917833812 6.3322684451159015 -0.8468053669258884 L 6.3344815943336545 -0.8008912953296994 Q 6.268988117379215 -0.7945980865759454 6.204056053701868 -0.8184534236433799 Q 6.139123990024521 -0.8423087607108144 6.082830149360453 -0.8918668428295629 Q 6.005519941515134 -0.9599266089393106 5.973992340484159 -1.0489673882105617 Z M 6.985647529629948 -0.9092481643247612 L 6.8215598642732935 -1.1005051591714927 L 6.8564718553961095 -1.130457669514374 L 7.217855404098264 -0.7092369070543103 L 7.182943412975448 -0.679284396711429 L 7.018855747618795 -0.8705413915581607 L 6.522498308611801 -0.4446948314658918 L 6.489290090622954 -0.48340160423249223 L 6.985647529629948 -0.9092481643247612 Z M 7.346820655349803 -0.5234850349192487 L 7.376137936139051 -0.4817537870691739 L 6.80335610290273 -0.0793597370206689 L 6.774038822113481 -0.12109098487074374 L 7.346820655349803 -0.5234850349192487 Z M 7.050787671656696 0.2259646052105701 Q 7.053047062806748 0.13085338004954578 7.102407482037119 0.050973476360307635 Q 7.15176790126749 -0.02890642732893048 7.240145676457022 -0.07569711927240078 Q 7.328523451646553 -0.12248781121587107 7.422335028223221 -0.11840882847505485 Q 7.516146604799889 -0.1143298457342386 7.596078544576102 -0.06273396408064164 Q 7.676010484352314 -0.011138082427044671 7.724204897054088 0.07989102601817216 Q 7.772399309755863 0.170920134463389 7.770581807481759 0.2657974061646959 Q 7.768764305207655 0.360674677866003 7.719403885977283 0.4405545815552411 Q 7.670043466746911 0.5204344852444792 7.5807819138054855 0.5676930841073842 Q 7.491520360864059 0.6149516829702892 7.39770878428739 0.6108727002294729 Q 7.3038972077107225 0.6067937174886567 7.224407156810457 0.5549638823753423 Q 7.144917105910193 0.503134047262028 7.096722693208418 0.41210493881681126 Q 7.048528280506645 0.32107583037159443 7.050787671656696 0.2259646052105701 Z M 7.248008557813429 0.5119176993773462 Q 7.3165810591691045 0.5559496429845251 7.398071574374547 0.5591970929920862 Q 7.479562089579989 0.5624445429996473 7.556450753994881 0.5217366410088282 Q 7.633339418409773 0.481028739018009 7.676461566221569 0.4118064133701548 Q 7.719583714033366 0.34258408772230053 7.721713432829314 0.26111959056034545 Q 7.723843151625262 0.17965509339839036 7.682667342715009 0.10188265123160317 Q 7.641491533804755 0.02411020906481598 7.572685078989361 -0.020363623418310495 Q 7.503878624173968 -0.06483745590143694 7.4223881089685255 -0.06808490590899807 Q 7.340897593763083 -0.07133235591655918 7.264008929348192 -0.03062445392574001 Q 7.1871202649332995 0.010083448065079145 7.1439981171215035 0.07930577371293338 Q 7.1008759693097065 0.14852809936078762 7.0989802039734755 0.23043448539869033 Q 7.0970844386372445 0.31234087143659306 7.138260247547498 0.39011331360338025 Q 7.179436056457752 0.46788575577016744 7.248008557813429 0.5119176993773462 Z M 8.185791298118893 1.2600652721914278 L 7.518521797260961 1.471610570472448 L 7.5058290793641 1.4315744004209718 L 7.941247292566351 0.7931356957579806 L 7.361676068964033 0.9768778976934952 L 7.346263482946416 0.9282625483452744 L 8.013532983804348 0.7167172500642544 L 8.026527909270182 0.757706662259813 L 7.590807488498958 1.3951921247787218 L 8.170378712101277 1.2114499228432072 L 8.185791298118893 1.2600652721914278 Z" fill="#202020" fill-rule="nonzero"></path></g><g><path d=" M -1.3870172755781047 4.83284498028608 L -2.1251290811862416 4.862626894628448 L -2.153007707089176 4.789779230165103 L -1.6687136381851273 4.384941911203078 L -2.2999066205007943 4.405928075108243 L -2.327427828122922 4.334014355061093 L -1.7580174510556217 3.863410676273863 L -1.7308536617143004 3.9343904519048154 L -2.2208897075417537 4.338213029022285 L -1.5839547483026826 4.318241606961676 L -1.5592928869270095 4.382683771679251 L -2.0507010928798253 4.791314381303928 L -1.4123939735153916 4.766534926736112 L -1.3870172755781047 4.83284498028608 Z M -0.7550727075546941 5.772512992742627 L -1.4656961587471549 5.9742809550540805 L -1.5098557040466554 5.909985274336467 L -1.1338067988925786 5.403012670606818 L -1.7425425388940234 5.571196495170577 L -1.7861359361768636 5.507725118051908 L -1.3427343488480468 4.916885857038993 L -1.299707099581867 4.979532930558721 L -1.6815759667806431 5.48686336357484 L -1.0670202647344988 5.31832170972461 L -1.0279560515849409 5.37519865805173 L -1.4100332375139073 5.887524749513605 L -0.7952692167375728 5.713987437217619 L -0.7550727075546941 5.772512992742627 Z M 0.07795698105870796 6.539572152463271 L -0.5670393670371395 6.899677291197809 L -0.624827647234638 6.847289175447999 L -0.37573652336093355 6.267299854850339 L -0.9293274313522257 6.571244103997081 L -0.9863748361625768 6.519527630756885 L -0.6910716708003095 5.84240722748504 L -0.6347651413771059 5.893452058215623 L -0.8894371039603173 6.475130828220181 L -0.330265357259518 6.169497129666541 L -0.27914495554634633 6.215840462829835 L -0.532868344109807 6.802428429034286 L 0.025354828571241494 6.491885534280753 L 0.07795698105870796 6.539572152463271 Z M -0.2209856306611005 7.135116923862798 Q -0.22478500676247248 7.113166645020827 -0.2118336636856803 7.094159732791134 Q -0.1988823206088881 7.075152820561442 -0.17734523551103987 7.071071893523618 Q -0.1558081504131916 7.066990966485793 -0.1376276256717468 7.079379207689682 Q -0.11944710093030197 7.09176744889357 -0.11495298014835423 7.11358608492787 Q -0.11045885936640648 7.13540472096217 -0.12341020244319867 7.154411633191863 Q -0.13636154551999083 7.173418545421555 -0.15859337529841486 7.177631115267051 Q -0.18082520507683883 7.181843685112547 -0.19900572981828366 7.169455443908658 Q -0.21718625455972848 7.15706720270477 -0.2209856306611005 7.135116923862798 Z M 0.4071224492614381 7.150078967866188 L 0.21222886591370427 7.209159346756983 L 0.12433674375661954 7.370810127338841 L 0.05932501678348087 7.335462208645231 L 0.39369722064195534 6.720486412953378 L 0.45870894761509406 6.755834331646989 L 0.25665260156918734 7.127455419615065 L 0.8197875933713101 6.9521585827696075 L 0.8944632257053207 6.992760921809565 L 0.4768437189656527 7.12652170675985 L 0.5785402957176018 7.617767883617171 L 0.5012290528306261 7.575732520846392 L 0.4071224492614381 7.150078967866188 Z M 1.2556903093880107 7.87230541319509 L 1.1810265278210008 7.6065041345636395 Q 1.1545984941674632 7.600214537024251 1.1273004516677434 7.590425927537531 L 0.9503338313247326 7.526968735002936 L 0.8754003380126045 7.735939956897343 L 0.8057432640478023 7.7109621257933 L 1.0420200447617198 7.052043858558685 L 1.288643739069533 7.140478882197323 Q 1.4147795216544448 7.18570900879113 1.464716770717502 7.271605872272948 Q 1.5146540197805591 7.3575027357547675 1.4768497348663323 7.462929658512306 Q 1.4491715976969877 7.540117226959789 1.3910362459818835 7.5792935065299725 Q 1.3329008942667795 7.618469786100155 1.2519814284169035 7.616012135480004 L 1.331936566025159 7.899646012106271 L 1.2556903093880107 7.87230541319509 Z M 1.3118780760301028 7.540816446742548 Q 1.3791769854740228 7.516080707666082 1.4071926609015302 7.437951827408263 Q 1.435883412845363 7.357940323529774 1.3994692540233338 7.296546031960573 Q 1.3630550952013043 7.235151740391373 1.2651586669264472 7.200047761542448 L 1.0900746702041066 7.137265645524178 L 0.9715987415889852 7.467666090951821 L 1.1466827383113256 7.530448206970091 Q 1.2445791665861827 7.565552185819016 1.3118780760301028 7.540816446742548 Z M 1.745939267278541 7.277687433618168 L 1.8179313573202232 7.294808735304382 L 1.6559730981263123 7.975814992455429 L 1.5839810080846302 7.958693690769215 L 1.745939267278541 7.277687433618168 Z M 2.0084616779973787 8.02761004199364 Q 1.9409783308335884 7.99321167203849 1.9078531691983343 7.9473344046107295 L 1.94426300415505 7.894757566379197 Q 1.9768011564647572 7.937527516627827 2.036063830275422 7.96929519663142 Q 2.0953265040860876 8.001062876635013 2.1617165418677797 8.010083014291695 Q 2.2548607739794075 8.0227381327951 2.3060775877838116 7.994879777069662 Q 2.3572944015882156 7.967021421344224 2.3646989922019097 7.912522136598059 Q 2.370353406852367 7.870904500973714 2.348451279658097 7.842699061350018 Q 2.3265491524638264 7.814493621726321 2.2917034876943134 7.796135254512141 Q 2.2568578229248 7.777776887297961 2.1936127439533855 7.753037041180825 Q 2.118024531541146 7.722583434755276 2.0739430505099383 7.697924297907137 Q 2.0298615694787308 7.673265161058997 2.001782449557346 7.631101040951488 Q 1.9737033296359614 7.588936920843977 1.9824542094521456 7.5245286752348735 Q 1.9895895422253418 7.472011182661296 2.023190990672402 7.432676812674483 Q 2.0567924391194623 7.393342442687669 2.117764764050983 7.375387621818469 Q 2.1787370889825035 7.357432800949268 2.2639541524037803 7.36901088809068 Q 2.323407917581415 7.37708862330562 2.3781630653592067 7.401179571643786 Q 2.432918213136998 7.425270519981952 2.470631610074122 7.459660921134933 L 2.437916101622084 7.51475806722005 Q 2.3982209125123726 7.480098408226571 2.350628227541287 7.4589989689628595 Q 2.3030355425702016 7.437899529699148 2.255472530428094 7.4314373415271975 Q 2.164310090489054 7.41905148086429 2.113454095807548 7.447968047136147 Q 2.062598101126042 7.476884613408003 2.055058881592099 7.532374794240462 Q 2.049404466941642 7.573992429864806 2.0712392796757872 7.60269331753165 Q 2.0930740924099327 7.631394205198494 2.1294061013088874 7.6499545157930475 Q 2.1657381102078417 7.668514826387601 2.227992293092962 7.6931200435844875 Q 2.3017333422528625 7.7223134960832445 2.3463102713272175 7.747039947391508 Q 2.390887200401572 7.771766398699772 2.418538186739934 7.813367756304011 Q 2.446189173078296 7.854969113908249 2.437572922182361 7.91838646343106 Q 2.4304375894091645 7.970903956004637 2.3963406929189572 8.010171011531327 Q 2.36224379642875 8.049438067058015 2.3003478898710603 8.06676281096382 Q 2.2384519833133703 8.084087554869624 2.153234919892094 8.072509467728212 Q 2.0759450251611686 8.06200841194879 2.0084616779973787 8.02761004199364 Z M 2.810520373973106 7.4793055108336866 L 2.5645306048753547 7.477061964704288 L 2.565114291673247 7.413064626402433 L 3.1310907522802696 7.418226606521294 L 3.130507065482377 7.482223944823148 L 2.884517296384625 7.479980398693749 L 2.8787169088305697 8.115953948068425 L 2.804719986419051 8.115279060208362 L 2.810520373973106 7.4793055108336866 Z M 3.4644884189748515 8.047400927133564 Q 3.3743563704457324 8.013068525121113 3.31608241850384 7.939438391853042 Q 3.2578084665619467 7.86580825858497 3.2438019864822105 7.765784168907653 Q 3.2297955064024744 7.665760079230336 3.265603619008553 7.578955534006077 Q 3.3014117316146314 7.492150988781818 3.378646724228746 7.434382001289413 Q 3.4558817168428604 7.376613013797008 3.5588768190848503 7.362190499655497 Q 3.6618719213268403 7.347767985513987 3.750944293324106 7.38174389678625 Q 3.8400166653213716 7.415719808058514 3.8988551250343386 7.489775771077068 Q 3.9576935847473065 7.563831734095623 3.9717000648270426 7.6638558237729395 Q 3.985706544906779 7.763879913450257 3.949472602550217 7.85124896644559 Q 3.913238660193655 7.9386180194409235 3.8369246660908027 7.995753160151959 Q 3.76061067198795 8.052888300862994 3.6576155697459605 8.067310815004504 Q 3.5546204675039705 8.081733329146015 3.4644884189748515 8.047400927133564 Z M 3.791813022848385 7.944009178434576 Q 3.8529652110205643 7.89758009399654 3.8813759484704216 7.826452884030484 Q 3.9097866859202792 7.755325674064429 3.8984150882317805 7.674117997296706 Q 3.887043490543282 7.5929103205289845 3.840188576354762 7.532322640127879 Q 3.7933336621662423 7.471734959726774 3.721780622449704 7.443888730047991 Q 3.650227582733166 7.416042500369208 3.568029568443886 7.427552776078298 Q 3.4858315541546054 7.439063051787389 3.424184197221647 7.485561475235721 Q 3.362536840288689 7.532059898684054 3.3336309340780526 7.603256447660404 Q 3.3047250278674163 7.674452996636755 3.316096625555915 7.755660673404478 Q 3.3274682232444137 7.8368683501722005 3.3748183061937125 7.8973866915630095 Q 3.422168389143011 7.957905032953819 3.4942165976203277 7.985681923622306 Q 3.5662648060976445 8.013458814290793 3.648462820386925 8.001948538581702 Q 3.7306608346762054 7.990438262872613 3.791813022848385 7.944009178434576 Z M 4.635676548439154 7.09803648911431 L 4.546273937622365 7.858370082466032 L 4.4765311843327265 7.879932743794835 L 3.973598082278616 7.302734082276784 L 4.050028496842603 7.279103768491794 L 4.485660770397882 7.7808133679983795 L 4.564023034785416 7.120189908287738 L 4.635676548439154 7.09803648911431 Z M 4.740483671703637 7.04136907981967 L 4.808454129867662 7.0121113147482825 L 5.085216772434842 7.655075108191763 L 5.0172463142708175 7.684332873263151 L 4.740483671703637 7.04136907981967 Z M 5.399590560888314 7.485913720813574 Q 5.324932784849477 7.498699121743338 5.2709483731813105 7.481737892517781 L 5.268689320603482 7.417824696060003 Q 5.320345056047695 7.4326464704381765 5.386840861361672 7.422668601144304 Q 5.453336666675649 7.412690731850431 5.511941839808543 7.3802186872264235 Q 5.594164023009917 7.334660893276323 5.618554434916152 7.281704705658216 Q 5.642944846822386 7.228748518040108 5.616288690787753 7.180639793826538 Q 5.595933080724942 7.1439022226089035 5.561511692210181 7.134393383946065 Q 5.52709030369542 7.124884545283227 5.488183378197791 7.131008363399559 Q 5.449276452700161 7.137132181515891 5.383791465524712 7.155124303531685 Q 5.304996695823537 7.175918155212861 5.254919442647564 7.182515026770619 Q 5.2048421894715915 7.1891118983283775 5.157122622372126 7.172109165729188 Q 5.10940305527266 7.1551064331299985 5.077900325413547 7.0982506681503255 Q 5.0522134841438096 7.051891352089976 5.055622602152417 7.000271318048886 Q 5.059031720161024 6.948651284007795 5.09716346466078 6.897798849833949 Q 5.135295209160536 6.846946415660103 5.210519759749026 6.805265880769586 Q 5.263002004345648 6.776186437822712 5.321294335561133 6.76275125559603 Q 5.379586666776619 6.749316073369348 5.4303793020852416 6.754326881528238 L 5.437106485734407 6.818050856609446 Q 5.384564442272564 6.814009363215452 5.333801706396551 6.825559023226996 Q 5.28303897052054 6.837108683238539 5.241053174843243 6.860372237596038 Q 5.16058039979509 6.904960716781242 5.137111997309608 6.958549279784736 Q 5.113643594824127 7.0121378427882295 5.140784408241207 7.0611212710784095 Q 5.161140018304018 7.097858842296045 5.195803735510003 7.107805032997188 Q 5.230467452715988 7.117751223698331 5.270686434328533 7.110900419508328 Q 5.310905415941078 7.104049615318324 5.3755156990399175 7.086542150684978 Q 5.452076403205424 7.065842909692088 5.502591008419701 7.059003709443106 Q 5.55310561363398 7.052164509194123 5.600145500003916 7.068972218446231 Q 5.647185386373853 7.085779927698339 5.6782034588505175 7.141760988601402 Q 5.703890300120255 7.188120304661751 5.7000438300733425 7.239982667394066 Q 5.69619736002643 7.291845030126381 5.65694858275884 7.342744769644369 Q 5.61769980549125 7.393644509162359 5.54247525490276 7.435325044052876 Q 5.474248336927152 7.47312831988381 5.399590560888314 7.485913720813574 Z M 6.041761595471831 6.236727306443871 L 6.4704176925717025 6.790129466196709 L 6.412705753054621 6.834832173465696 L 6.21491158253568 6.579476605465457 L 5.86863994543319 6.847692849079377 L 6.066434115952131 7.1030484170796155 L 6.007931601921117 7.148363490201602 L 5.579275504821245 6.594961330448764 L 5.637778018852259 6.549646257326778 L 5.828836164988202 6.7963055056737565 L 6.175107802090692 6.5280892620598365 L 5.984049655954749 6.281430013712858 L 6.041761595471831 6.236727306443871 Z M 6.661613295094868 6.591083145897043 Q 6.639349122204326 6.590337085912821 6.623374824492801 6.573789523777461 Q 6.607400526781277 6.557241961642101 6.607786857153862 6.535325056093114 Q 6.608173187526447 6.5134081505441275 6.62400129043853 6.498128387515712 Q 6.639829393350613 6.482848624487298 6.662106028511238 6.4828876875183274 Q 6.6843826636718635 6.482926750549358 6.700356961383387 6.499474312684717 Q 6.716331259094912 6.516021874820077 6.715932466452244 6.538645777322257 Q 6.715533673809576 6.561269679824437 6.699705570897493 6.576549442852852 Q 6.683877467985409 6.591829205881266 6.661613295094868 6.591083145897043 Z M 6.944417759810333 6.258446595346081 Q 6.855248174689256 6.292166546255521 6.762407391832851 6.275460588078578 Q 6.669566608976445 6.258754629901635 6.592691622211415 6.193247100488013 Q 6.515816635446386 6.127739571074391 6.484591845602793 6.038725457029351 Q 6.4533670557592 5.949711342984311 6.4728361951607125 5.855940598021053 Q 6.492305334562226 5.762169853057794 6.559758632176252 5.6830114508442975 Q 6.610348605386772 5.623642649184176 6.672945106349047 5.5902708337214255 Q 6.735541607311323 5.556899018258675 6.8034336438586305 5.554316118055603 L 6.808723450744929 5.620573328554579 Q 6.692364625859637 5.629153763934795 6.611290950842779 5.724296074287555 Q 6.557458030631585 5.787470568361788 6.542277213769653 5.863874382398814 Q 6.527096396907721 5.940278196435839 6.552360844868786 6.012388928433391 Q 6.57762529282985 6.084499660430942 6.64003864842126 6.137683991242001 Q 6.702452004012671 6.190868322053061 6.777657835784121 6.204371390873312 Q 6.85286366755557 6.2178744596935625 6.92589100911198 6.190763440066787 Q 6.99891835066839 6.16365242044001 7.052751270879583 6.100477926365778 Q 7.134473535296577 6.004574477530197 7.1230736441504465 5.888440750810279 L 7.189330854649423 5.88315094392398 Q 7.197552666384323 5.9505927841405395 7.17459164107014 6.018396112351781 Q 7.1516306157559555 6.086199440563023 7.101040642545437 6.1455682422231455 Q 7.03358734493141 6.224726644436641 6.944417759810333 6.258446595346081 Z M 7.449205864247056 5.598959418360311 Q 7.365849048775943 5.647478912530333 7.271953740131191 5.646519217523194 Q 7.178058431486439 5.645559522516056 7.091460752706097 5.593580276370535 Q 7.004863073925755 5.541601030225013 6.959859135417879 5.4591880729987405 Q 6.914855196910003 5.376775115772469 6.918473555682386 5.280393543468453 Q 6.922091914454769 5.184011971164436 6.975615098604613 5.09484208410349 Q 7.029138282754456 5.005672197042544 7.111551750844028 4.957752782632003 Q 7.1939652189336005 4.909833368221463 7.288546551959174 4.910621684849221 Q 7.383127884984747 4.9114100014769795 7.469725563765088 4.9633892476225006 Q 7.556323242545431 5.015368493768022 7.601498559432687 5.098467475375115 Q 7.646673876319943 5.181566456982209 7.6431414621689004 5.2768333035253026 Q 7.639609048017857 5.372100150068397 7.586085863868014 5.461270037129344 Q 7.53256267971817 5.5504399241902895 7.449205864247056 5.598959418360311 Z M 7.574541578403289 5.2793937619500095 Q 7.576870256992271 5.2026485519624845 7.539409521493628 5.135843287979018 Q 7.501948785994984 5.06903802399555 7.431641759658469 5.026837051877404 Q 7.361334733321954 4.984636079759259 7.28476090171381 4.982993425551099 Q 7.208187070105666 4.981350771342938 7.1415531845015785 5.019497531222402 Q 7.074919298897492 5.057644291101866 7.032203680777905 5.128808720198583 Q 6.989488062658318 5.1999731492953 6.9869020610686166 5.277147060662925 Q 6.984316059478915 5.35432097203055 7.021519471976838 5.421554937394117 Q 7.0587228844747605 5.488788902757685 7.129029910811275 5.530989874875831 Q 7.199336937147791 5.5731908469939775 7.276168091756656 5.574404799822037 Q 7.35299924636552 5.575618752650096 7.419890454970327 5.537043291390532 Q 7.486781663575134 5.498467830130967 7.529497281694721 5.4273034010342505 Q 7.572212899814308 5.356138971937534 7.574541578403289 5.2793937619500095 Z M 7.49764111804126 3.932886884647519 L 8.15540701441372 4.172353010789265 L 8.13111830733363 4.239069265992757 L 7.604905590235661 4.04749636507936 L 7.953412093810587 4.467030889243916 L 7.9414387875035 4.499919184062539 L 7.407599324373084 4.598227004731238 L 7.930993044772313 4.788773622246884 L 7.906704337692221 4.855489877450377 L 7.248938441319761 4.616023751308631 L 7.269806203740685 4.558704151767603 L 7.861489350261253 4.450592847439514 L 7.476773355620336 3.9902064841885476 L 7.49764111804126 3.932886884647519 Z" fill="#1192dc" fill-rule="nonzero"></path></g><g clip-path="url(&quot;#SvgjsClipPath1004&quot;)"><g clip-path="url(&quot;#SvgjsClipPath1000&quot;)"><path d=" M 2.0779752672143843 4.128636400481564 C 1.8896024526012374 4.137140757995692 1.7062714359901907 4.0663980540359175 1.5724379943926772 3.933562624679998 C 1.4386045527951632 3.8007271953240753 1.366491611583028 3.617930818103642 1.3735857744604691 3.4294996257944192 L 1.3735857744604691 0.6980862310737872 C 1.366480849747113 0.5096987758016754 1.4386086285981006 0.32694777419275756 1.5724612344549935 0.1941931390028487 C 1.7063138403118863 0.06143850381293988 1.8896527216497043 -0.009181604235944288 2.077975267214383 -0.0005252718066786026 L 3.7220760221135305 -0.0005252718066786026 C 4.2746390381860415 -0.021795937426132207 4.8108582154469595 0.18930929911157146 5.2006190308428195 0.5815653822116289 C 5.590379846238679 0.9738214653116865 5.798058871494551 1.5113769037780747 5.773262427187386 2.063792928434101 L 5.773262427187386 3.4294996257944192 C 5.7803565900648275 3.617930818103642 5.708243648852691 3.8007271953240753 5.574410207255178 3.933562624679998 C 5.4405767656576645 4.0663980540359175 5.257245749046618 4.137140757995692 5.068872934433471 4.128636400481564 Z M 5.394016182766561 2.0643182002407836 C 5.414213482333367 1.6142028394739483 5.244866843547182 1.1762207585654505 4.927116623908643 0.856773475234215 C 4.609366404270105 0.5373261919029795 4.172292580482269 0.3656489953258141 3.7220760221135314 0.3834484188742395 L 2.0779752672143843 0.3834484188742395 C 1.991585489190889 0.37467652411325775 1.9057821351688766 0.4048721439112556 1.8439258751332572 0.46581427202516673 C 1.7820696150976378 0.5267564001390738 1.7505999432310966 0.6121007073248746 1.7580847369480648 0.6986115028804658 L 1.7580847369480648 3.430024897601098 C 1.7505999432310966 3.5165356931566887 1.7820696150976378 3.6018800003424896 1.8439258751332572 3.662822128456397 C 1.9057821351688766 3.7237642565703077 1.9915854891908888 3.7539598763683055 2.0779752672143843 3.745187981607328 L 5.072024565273533 3.745187981607328 C 5.158414343297028 3.7539598763683055 5.2442176973190415 3.7237642565703077 5.30607395735466 3.662822128456397 C 5.36793021739028 3.6018800003424896 5.399399889256821 3.5165356931566887 5.391915095539853 3.430024897601102 Z" fill="#202020" transform="matrix(1,0,0,1,0,0)" fill-rule="evenodd"></path></g><g clip-path="url(&quot;#SvgjsClipPath1000&quot;)"><path d=" M 0.6776006306133862 3.218340359510244 L 0.6776006306133862 1.2748346748051822 C 0.6708075220919658 1.0865824795486487 0.7430533365125236 0.9040679314230871 0.8768516838664424 0.7714668847166308 C 1.0106500312203615 0.6388658380101746 1.1938065935624442 0.5682634892546375 1.3819901233673006 0.5767484437313951 L 3.7089442269466044 0.5767484437313951 C 4.078353336408251 0.5682332736139644 4.435232742688555 0.7108693776466891 4.697009133977913 0.9716541916963103 C 4.958785525267269 1.2324390057459398 5.102774978315261 1.588774530513758 5.095661796573999 1.958213295292022 L 5.095661796573999 2.063267656627431 L 4.711162834086404 2.063267656627431 L 4.711162834086404 1.958213295292022 C 4.718688288877374 1.6905511396137751 4.6153740886503325 1.4316570007248273 4.425636217092257 1.2427146757980194 C 4.235898345534182 1.0537723508712118 3.9765724005469143 0.9515468482993714 3.708944226946606 0.9601968626056346 L 1.3819901233673015 0.9601968626056346 C 1.2956003453438065 0.9514249678446569 1.209796991321794 0.9816205876426548 1.1479407312861747 1.042562715756566 C 1.0860844712505553 1.103504843870477 1.0546147993840138 1.188849151056278 1.062099593100982 1.275359946611865 L 1.062099593100982 3.218865631316927 Z" fill="#facf0e" transform="matrix(1,0,0,1,0,0)" fill-rule="evenodd"></path></g><g clip-path="url(&quot;#SvgjsClipPath1000&quot;)"><path d=" M 3.6952871599730015 1.1540221592694646 C 3.8838765199229246 1.1449103296062304 4.067639383479408 1.215328671859605 4.20184491533311 1.348136229423165 C 4.336050447186812 1.4809437869867248 4.408389094719337 1.663959231748516 4.401252468146948 1.8526336621499386 L 4.401252468146948 4.5840470568705625 C 4.408357392860304 4.772434512142678 4.336229614009316 4.955185513751592 4.202377008152423 5.087940148941505 C 4.06852440229553 5.2206947841314095 3.8851855209577115 5.2913148921802975 3.6968629753930333 5.282658559751032 L 2.051186405073855 5.282658559751032 C 1.4990706348290592 5.3031757682063505 0.9635563714882648 5.091737900710053 0.5743817884452563 4.699569667028252 C 0.18520720540224755 4.30740143334645 -0.02212095713531506 3.770282702457634 0.0026263590333854493 3.218340359510248 L 0.0026263590333854493 1.8526336621499346 C -0.004478565679970488 1.6642462068778228 0.06764921317101705 1.481495205268905 0.20150181902790973 1.348740570078996 C 0.33535442488480244 1.2159859348890873 0.5186933062226208 1.145365826840199 0.7070158517872993 1.1540221592694688 Z M 0.3797715162275025 3.2178150877035696 C 0.359584282827789 3.6678355615362896 0.5288607714931692 4.105730089694398 0.8464936432840385 4.42515975334329 C 1.1641265150749078 4.744589416992186 1.6010592183141468 4.916333296783415 2.051186405073855 4.89868486907011 L 3.6952871599730015 4.89868486907011 C 3.7816769379964965 4.907456763831096 3.8674802920185085 4.877261144033098 3.9293365520541284 4.816319015919187 C 3.9911928120897473 4.755376887805276 4.02266248395629 4.670032580619475 4.015177690239321 4.583521785063888 L 4.015177690239321 1.852108390343256 C 4.02266248395629 1.7655975947876608 3.991192812089748 1.6802532876018599 3.9293365520541284 1.6193111594879528 C 3.86748029201851 1.5583690313740417 3.7816769379964965 1.5281734115760437 3.6952871599730015 1.5369453063370255 L 0.701237861913853 1.5369453063370255 C 0.614934244768744 1.5283414144727159 0.5292809736630472 1.5586117457814979 0.46754779547876 1.6195326453054655 C 0.4058146172944729 1.680453544829433 0.37441251038656287 1.765698389191976 0.3818726034542104 1.852108390343256 Z" fill="#1192dc" transform="matrix(1,0,0,1,0,0)" fill-rule="evenodd"></path></g><g clip-path="url(&quot;#SvgjsClipPath1000&quot;)"><path d=" M 5.095661796573999 2.0643182002407836 L 4.711162834086404 2.0643182002407836 C 4.712368285711834 2.261953995736702 4.666261145097533 2.457008813257347 4.576693251577073 2.633187566872037 C 4.3899156956414895 2.9851670301789786 4.013493997482211 3.194267328336347 3.6159711171647673 3.166863722455897 L 3.5377056179698885 3.166863722455897 L 3.5377056179698885 3.5513626849434896 L 3.6159711171647673 3.5513626849434896 C 4.157280237401241 3.579406401718006 4.665541234191122 3.2903188642134737 4.918119925917159 2.8107294375288627 C 5.036061436629456 2.5796750590438777 5.096940602062312 2.3237304020021967 5.095661796573999 2.0643182002407836 Z" fill="#facf0e" transform="matrix(1,0,0,1,0,0)" fill-rule="evenodd"></path></g><g clip-path="url(&quot;#SvgjsClipPath1000&quot;)"><path d=" M 2.0643182002407814 4.705384844212959 C 1.694909090779134 4.7139000143303855 1.3380296844988302 4.571263910297665 1.0762532932094733 4.310479096248039 C 0.814476901920116 4.049694282198414 0.6704874488721232 3.6933587574305955 0.6776006306133862 3.3239199926523315 L 0.6776006306133862 3.218865631316919 C 0.6762582487131701 2.959278372822371 0.7371386118711913 2.703148560956388 0.8551425012702334 2.471929122222157 C 1.1077211929962645 1.9923396955375545 1.6159821897861455 1.7032521580330262 2.157291310022617 1.7312958748075384 L 2.4278062904612954 1.7312958748075384 L 2.4278062904612954 2.1163201091018093 L 2.157291310022618 2.1163201091018093 C 1.7602175455175815 2.0890694424345817 1.384189094392964 2.2976541521940823 1.1970944474169822 2.6489457210723333 C 1.1074641920564516 2.8252895671025824 1.0613558613754275 3.0205295298300476 1.0626248649076586 3.218340359510248 L 1.0626248649076586 3.3233947208456573 C 1.055099410116689 3.5910568765239037 1.1584136103437306 3.849951015412852 1.3481514819018061 4.038893340339664 C 1.5378893534598819 4.2278356652664675 1.7972152984471492 4.330061167838307 2.0648434720474578 4.321411153532044 L 4.391797575626761 4.321411153532044 C 4.478187353650256 4.330183048293022 4.563990707672268 4.299987428495024 4.625846967707888 4.239045300381113 C 4.687703227743508 4.178103172267202 4.719172899610049 4.092758865081401 4.711688105893081 4.006248069525814 L 4.711688105893081 2.0627423848207522 L 5.096187068380676 2.0627423848207522 L 5.096187068380676 4.006248069525814 C 5.1032919930940315 4.194635524797926 5.031164214243044 4.377386526406844 4.897311608386151 4.510141161596753 C 4.763459002529259 4.642895796786662 4.58012012119144 4.71351590483555 4.391797575626761 4.70485957240628 Z" fill="#facf0e" transform="matrix(1,0,0,1,0,0)" fill-rule="evenodd"></path></g><g clip-path="url(&quot;#SvgjsClipPath1000&quot;)"><path d=" M 3.5377056179698885 3.166863722455897 L 2.749797907954323 3.166863722455897 C 2.6634942908092136 3.175467614320207 2.5778410197035173 3.1451972830114205 2.5161078415192297 3.084276383487453 C 2.4543746633349426 3.0233554839634853 2.422972556427033 2.9381106396009424 2.4304326494946804 2.8517006384496626 L 2.4304326494946804 0.6980862310737872 C 2.422972556427033 0.6116762299225073 2.4543746633349426 0.5264313855599685 2.5161078415192297 0.46551048603600087 C 2.5778410197035173 0.40458958651203325 2.6634942908092136 0.37431925520324705 2.749797907954323 0.3829231470675609 L 3.2225425339636624 0.3829231470675609 L 3.2225425339636624 -0.001575815420035808 L 2.749797907954323 -0.001575815420035808 C 2.561564381273979 -0.010080631871442433 2.3783666830800048 0.06060656836475639 2.244631613359811 0.19334361517658868 C 2.110896543639617 0.32608066198842506 2.0388390783390995 0.5087437359669064 2.045933687007085 0.6970356874604341 L 2.045933687007085 2.850650094836314 C 2.0388390783390995 3.0389420463298373 2.1108965436396168 3.2216051203083187 2.2446316133598105 3.354342167120151 C 2.3783666830800034 3.4870792139319873 2.5615643812739775 3.5577664141681904 2.749797907954322 3.5492615977167796 L 3.5377056179698885 3.5492615977167796 Z" fill="#202020" transform="matrix(1,0,0,1,0,0)" fill-rule="evenodd"></path></g><g clip-path="url(&quot;#SvgjsClipPath1000&quot;)"><path d=" M 3.7304803710203633 4.583521785063883 C 3.73758529573372 4.7719092403359955 3.6654575168827312 4.9546602419449135 3.5316049110258394 5.087414877134822 C 3.3977523051689458 5.220169512324731 3.214413423831128 5.290789620373619 3.0260908782664493 5.282133287944349 L 2.9115816244108528 5.282133287944349 L 2.9115816244108528 4.897634325456757 L 3.026090878266448 4.897634325456757 C 3.1123944954115577 4.906238217321067 3.1980477665172544 4.875967886012281 3.259780944701541 4.815046986488313 C 3.321514122885828 4.754126086964345 3.3529162297937387 4.6688812426018025 3.34545613672609 4.582471241450523 L 3.34545613672609 2.428856834074647 C 3.3529162297937387 2.342446832923367 3.321514122885828 2.257201988560828 3.259780944701541 2.1962810890368605 C 3.1980477665172544 2.135360189512893 3.1123944954115577 2.105089858204107 3.0260908782664484 2.1136937500684208 L 2.4278062904612954 2.1136937500684208 L 2.4278062904612954 1.7286695157741494 L 3.026090878266448 1.7286695157741494 C 3.2143690124365287 1.7201749219177582 3.397612747658547 1.7908474544467126 3.531428629107436 1.923565666472833 C 3.6652445105563243 2.056283878498945 3.7374239284404465 2.2389393054264892 3.7304803710203633 2.4272810186546154 Z" fill="#1192dc" transform="matrix(1,0,0,1,0,0)" fill-rule="evenodd"></path></g></g><g><path d=" M -1.4529356423286233 2.6410666439721755 A 4.339566855922317 4.339566855922317 0 0 1 7.22619806951601 2.6410666439721755 A 4.339566855922317 4.339566855922317 0 0 1 -1.4529356423286233 2.6410666439721755 Z M -1.4029356423286234 2.6410666439721746 A 4.289566855922316 4.289566855922316 0 0 0 7.176198069516008 2.6410666439721746 A 4.289566855922316 4.289566855922316 0 0 0 -1.4029356423286234 2.6410666439721746 Z" fill="#202020" fill-rule="nonzero"></path></g><g><path d=" M -3.1893881311756758 2.6410666439721755 A 6.076019344769369 6.076019344769369 0 0 1 8.962650558363062 2.6410666439721755 A 6.076019344769369 6.076019344769369 0 0 1 -3.1893881311756758 2.6410666439721755 Z M -3.139388131175676 2.6410666439721746 A 6.026019344769368 6.026019344769368 0 0 0 8.912650558363062 2.6410666439721746 A 6.026019344769368 6.026019344769368 0 0 0 -3.139388131175675 2.6410666439721746 Z" fill="#202020" fill-rule="nonzero"></path></g><g transform="matrix(-0.020801702151825703,-0.9997836211838973,0.9997836211838973,-0.020801702151825703,-4.994055908423682,0.5359156252296984)"><g clip-path="url(&quot;#SvgjsClipPath1005&quot;)"><path d=" M -2.2345873336134785 2.9096625901342494 C -2.2224641675789956 2.9096625901342494 -2.2163051525789954 2.901388534789422 -2.2049526844755474 2.8863774409963185 L -2.091031707061754 2.7341624101342497 C -2.084872692061754 2.726078839789422 -2.081986953785892 2.71838280789287 -2.081986953785892 2.710106563065284 C -2.081986953785892 2.7018325077204564 -2.084872692061754 2.694134286341146 -2.091031707061754 2.686052905479077 L -2.2049526844755474 2.533836779875629 C -2.2163051525789954 2.5188269997721804 -2.2224641675789956 2.5105522875825255 -2.2345873336134785 2.5105522875825255 C -2.2469031741307197 2.5105522875825255 -2.25306218913072 2.5188269997721804 -2.264414657234168 2.533836779875629 L -2.3783362914927886 2.686052905479077 C -2.3844942117514094 2.694134286341146 -2.387380825820375 2.7018325077204564 -2.387380825820375 2.710106563065284 C -2.387380825820375 2.71838280789287 -2.3844942117514094 2.726078839789422 -2.3783362914927886 2.7341624101342497 L -2.264414657234168 2.8863774409963185 C -2.25306218913072 2.901388534789422 -2.2469031741307197 2.9096625901342494 -2.2345873336134785 2.9096625901342494 Z" fill="#202020" transform="matrix(1,0,0,1,0,0)" fill-rule="nonzero"></path></g></g><g transform="matrix(0.020801702151825703,-0.9997836211838973,-0.9997836211838973,-0.020801702151825703,10.55425820986425,10.776136473231546)"><g clip-path="url(&quot;#SvgjsClipPath1006&quot;)"><path d=" M 8.007849760800864 2.9096625901342494 C 8.019972926835347 2.9096625901342494 8.026131941835347 2.901388534789422 8.037484409938795 2.8863774409963185 L 8.151405387352588 2.7341624101342497 C 8.15756440235259 2.726078839789422 8.16045014062845 2.71838280789287 8.16045014062845 2.710106563065284 C 8.16045014062845 2.7018325077204564 8.15756440235259 2.694134286341146 8.151405387352588 2.686052905479077 L 8.037484409938795 2.533836779875629 C 8.026131941835347 2.5188269997721804 8.019972926835347 2.5105522875825255 8.007849760800864 2.5105522875825255 C 7.9955339202836235 2.5105522875825255 7.989374905283623 2.5188269997721804 7.978022437180175 2.533836779875629 L 7.864100802921554 2.686052905479077 C 7.857942882662933 2.694134286341146 7.855056268593968 2.7018325077204564 7.855056268593968 2.710106563065284 C 7.855056268593968 2.71838280789287 7.857942882662933 2.726078839789422 7.864100802921554 2.7341624101342497 L 7.978022437180175 2.8863774409963185 C 7.989374905283623 2.901388534789422 7.9955339202836235 2.9096625901342494 8.007849760800864 2.9096625901342494 Z" fill="#202020" transform="matrix(1,0,0,1,0,0)" fill-rule="nonzero"></path></g></g></g><defs><clipPath id="SvgjsClipPath1004"><path d=" M 0 0 h 5.773262427187386 v 5.28213328794435 h -5.773262427187386 Z"></path></clipPath><clipPath id="SvgjsClipPath1000"><path d=" M 0 0 L 5.773262427187386 0 L 5.773262427187386 5.28213328794435 L 0 5.28213328794435 Z"></path></clipPath><clipPath id="SvgjsClipPath1005"><path d=" M -2.541114919820375 2.3960975142721805 h 0.6130551724137931 v 0.63495 h -0.6130551724137931 Z"></path></clipPath><clipPath id="SvgjsClipPath1006"><path d=" M 7.701322174593968 2.3960975142721805 h 0.6130551724137931 v 0.63495 h -0.6130551724137931 Z"></path></clipPath></defs></svg>