<svg xmlns="http://www.w3.org/2000/svg" version="1.1" xmlns:xlink="http://www.w3.org/1999/xlink" xmlns:svgjs="http://svgjs.dev/svgjs" viewBox="0 0 14.417112395140602 8.949006978512067"><g transform="matrix(1,0,0,1,0.9411654504999891,6.942841528012077)"><g><path d=" M 0.97875 0.6044999999999998 Q 1.038 0.6719999999999999 1.038 0.7799999999999998 Q 1.038 0.9134999999999999 0.9405 0.9854999999999998 Q 0.843 1.0574999999999999 0.651 1.0574999999999999 L 0.183 1.0574999999999999 L 0.183 0.00749999999999984 L 0.621 0.00749999999999984 Q 0.792 0.00749999999999984 0.88725 0.07724999999999982 Q 0.9825 0.1469999999999999 0.9825 0.2759999999999999 Q 0.9825 0.3659999999999999 0.93525 0.4274999999999999 Q 0.888 0.4889999999999999 0.807 0.5159999999999999 Q 0.9195 0.5369999999999999 0.97875 0.6044999999999998 Z M 0.2595 0.0734999999999999 L 0.2595 0.4919999999999999 L 0.618 0.4919999999999999 Q 0.756 0.4919999999999999 0.83025 0.43874999999999986 Q 0.9045 0.38549999999999984 0.9045 0.2819999999999999 Q 0.9045 0.17999999999999983 0.83025 0.12674999999999992 Q 0.756 0.0734999999999999 0.618 0.0734999999999999 L 0.2595 0.0734999999999999 Z M 0.88275 0.9382499999999999 Q 0.9615 0.8849999999999999 0.9615 0.7739999999999998 Q 0.9615 0.6629999999999998 0.88275 0.6104999999999998 Q 0.804 0.5579999999999998 0.651 0.5579999999999998 L 0.2595 0.5579999999999998 L 0.2595 0.9914999999999998 L 0.651 0.9914999999999998 Q 0.804 0.9914999999999998 0.88275 0.9382499999999999 Z M 1.3259296875000002 0.00749999999999984 L 1.4024296875000002 0.00749999999999984 L 1.4024296875000002 1.0574999999999999 L 1.3259296875000002 1.0574999999999999 L 1.3259296875000002 0.00749999999999984 Z M 1.9499040527343752 0.9952499999999999 Q 1.8254040527343753 0.9254999999999999 1.7541540527343753 0.8039999999999998 Q 1.6829040527343753 0.6824999999999999 1.6829040527343753 0.5324999999999999 Q 1.6829040527343753 0.38249999999999984 1.7541540527343753 0.2609999999999999 Q 1.8254040527343753 0.13949999999999985 1.9499040527343752 0.06974999999999987 Q 2.0744040527343754 -2.220446049250313e-16 2.228904052734375 -2.220446049250313e-16 Q 2.383404052734375 -2.220446049250313e-16 2.507904052734375 0.06899999999999984 Q 2.6324040527343753 0.1379999999999999 2.7036540527343753 0.25949999999999984 Q 2.7749040527343753 0.3809999999999999 2.7749040527343753 0.5324999999999999 Q 2.7749040527343753 0.6839999999999999 2.7036540527343753 0.8054999999999999 Q 2.6324040527343753 0.9269999999999998 2.507904052734375 0.9959999999999999 Q 2.383404052734375 1.065 2.228904052734375 1.065 Q 2.0744040527343754 1.065 1.9499040527343752 0.9952499999999999 Z M 2.4674040527343752 0.9344999999999999 Q 2.5739040527343753 0.8744999999999998 2.6354040527343754 0.7687499999999998 Q 2.696904052734375 0.6629999999999998 2.696904052734375 0.5324999999999999 Q 2.696904052734375 0.4019999999999999 2.6354040527343754 0.2962499999999999 Q 2.5739040527343753 0.1904999999999999 2.4674040527343752 0.13049999999999984 Q 2.360904052734375 0.0704999999999999 2.228904052734375 0.0704999999999999 Q 2.0969040527343754 0.0704999999999999 1.9896540527343753 0.13049999999999984 Q 1.8824040527343753 0.1904999999999999 1.8209040527343752 0.2962499999999999 Q 1.7594040527343753 0.4019999999999999 1.7594040527343753 0.5324999999999999 Q 1.7594040527343753 0.6629999999999998 1.8209040527343752 0.7687499999999998 Q 1.8824040527343753 0.8744999999999998 1.9896540527343753 0.9344999999999999 Q 2.0969040527343754 0.9944999999999999 2.228904052734375 0.9944999999999999 Q 2.360904052734375 0.9944999999999999 2.4674040527343752 0.9344999999999999 Z M 3.7798315429687506 0.9884999999999999 L 3.7798315429687506 1.0574999999999999 L 3.05533154296875 1.0574999999999999 L 3.05533154296875 0.00749999999999984 L 3.7573315429687506 0.00749999999999984 L 3.7573315429687506 0.0764999999999999 L 3.1318315429687504 0.0764999999999999 L 3.1318315429687504 0.4904999999999998 L 3.6913315429687503 0.4904999999999998 L 3.6913315429687503 0.5579999999999998 L 3.1318315429687504 0.5579999999999998 L 3.1318315429687504 0.9884999999999999 L 3.7798315429687506 0.9884999999999999 Z M 4.07374951171875 0.00749999999999984 L 4.150249511718751 0.00749999999999984 L 4.150249511718751 0.9884999999999999 L 4.75474951171875 0.9884999999999999 L 4.75474951171875 1.0574999999999999 L 4.07374951171875 1.0574999999999999 L 4.07374951171875 0.00749999999999984 Z M 5.69069091796875 0.9884999999999999 L 5.69069091796875 1.0574999999999999 L 4.96619091796875 1.0574999999999999 L 4.96619091796875 0.00749999999999984 L 5.66819091796875 0.00749999999999984 L 5.66819091796875 0.0764999999999999 L 5.04269091796875 0.0764999999999999 L 5.04269091796875 0.4904999999999998 L 5.60219091796875 0.4904999999999998 L 5.60219091796875 0.5579999999999998 L 5.04269091796875 0.5579999999999998 L 5.04269091796875 0.9884999999999999 L 5.69069091796875 0.9884999999999999 Z M 6.97760888671875 1.0574999999999999 L 6.97610888671875 0.15899999999999992 L 6.53660888671875 0.9179999999999999 L 6.49910888671875 0.9179999999999999 L 6.05960888671875 0.1619999999999998 L 6.05960888671875 1.0574999999999999 L 5.98460888671875 1.0574999999999999 L 5.98460888671875 0.00749999999999984 L 6.0491088867187495 0.00749999999999984 L 6.5186088867187495 0.8189999999999998 L 6.98810888671875 0.00749999999999984 L 7.05110888671875 0.00749999999999984 L 7.05260888671875 1.0574999999999999 L 6.97760888671875 1.0574999999999999 Z M 8.158099365234376 0.9884999999999999 L 8.158099365234376 1.0574999999999999 L 7.433599365234375 1.0574999999999999 L 7.433599365234375 0.00749999999999984 L 8.135599365234375 0.00749999999999984 L 8.135599365234375 0.0764999999999999 L 7.5100993652343755 0.0764999999999999 L 7.5100993652343755 0.4904999999999998 L 8.069599365234376 0.4904999999999998 L 8.069599365234376 0.5579999999999998 L 7.5100993652343755 0.5579999999999998 L 7.5100993652343755 0.9884999999999999 L 8.158099365234376 0.9884999999999999 Z M 9.307017333984376 0.00749999999999984 L 9.307017333984376 1.0574999999999999 L 9.244017333984376 1.0574999999999999 L 8.528517333984375 0.14549999999999985 L 8.528517333984375 1.0574999999999999 L 8.452017333984376 1.0574999999999999 L 8.452017333984376 0.00749999999999984 L 8.516517333984376 0.00749999999999984 L 9.230517333984377 0.9194999999999999 L 9.230517333984377 0.00749999999999984 L 9.307017333984376 0.00749999999999984 Z M 9.888964599609377 0.0764999999999999 L 9.510964599609377 0.0764999999999999 L 9.510964599609377 0.00749999999999984 L 10.343464599609376 0.00749999999999984 L 10.343464599609376 0.0764999999999999 L 9.965464599609376 0.0764999999999999 L 9.965464599609376 1.0574999999999999 L 9.888964599609377 1.0574999999999999 L 9.888964599609377 0.0764999999999999 Z M 10.698932373046878 0.9952499999999999 Q 10.574432373046877 0.9254999999999999 10.503182373046878 0.8039999999999998 Q 10.431932373046877 0.6824999999999999 10.431932373046877 0.5324999999999999 Q 10.431932373046877 0.38249999999999984 10.503182373046878 0.2609999999999999 Q 10.574432373046877 0.13949999999999985 10.698932373046878 0.06974999999999987 Q 10.823432373046877 -2.220446049250313e-16 10.977932373046878 -2.220446049250313e-16 Q 11.132432373046877 -2.220446049250313e-16 11.256932373046878 0.06899999999999984 Q 11.381432373046877 0.1379999999999999 11.452682373046876 0.25949999999999984 Q 11.523932373046877 0.3809999999999999 11.523932373046877 0.5324999999999999 Q 11.523932373046877 0.6839999999999999 11.452682373046876 0.8054999999999999 Q 11.381432373046877 0.9269999999999998 11.256932373046878 0.9959999999999999 Q 11.132432373046877 1.065 10.977932373046878 1.065 Q 10.823432373046877 1.065 10.698932373046878 0.9952499999999999 Z M 11.216432373046878 0.9344999999999999 Q 11.322932373046877 0.8744999999999998 11.384432373046877 0.7687499999999998 Q 11.445932373046878 0.6629999999999998 11.445932373046878 0.5324999999999999 Q 11.445932373046878 0.4019999999999999 11.384432373046877 0.2962499999999999 Q 11.322932373046877 0.1904999999999999 11.216432373046878 0.13049999999999984 Q 11.109932373046878 0.0704999999999999 10.977932373046878 0.0704999999999999 Q 10.845932373046876 0.0704999999999999 10.738682373046878 0.13049999999999984 Q 10.631432373046877 0.1904999999999999 10.569932373046877 0.2962499999999999 Q 10.508432373046878 0.4019999999999999 10.508432373046878 0.5324999999999999 Q 10.508432373046878 0.6629999999999998 10.569932373046877 0.7687499999999998 Q 10.631432373046877 0.8744999999999998 10.738682373046878 0.9344999999999999 Q 10.845932373046876 0.9944999999999999 10.977932373046878 0.9944999999999999 Q 11.109932373046878 0.9944999999999999 11.216432373046878 0.9344999999999999 Z M 11.860609863281253 1.0252499999999998 Q 11.756359863281252 0.9854999999999998 11.697859863281252 0.9224999999999999 L 11.732359863281253 0.8654999999999999 Q 11.787859863281252 0.9239999999999999 11.881609863281252 0.9607499999999999 Q 11.975359863281252 0.9974999999999998 12.078859863281252 0.9974999999999998 Q 12.228859863281253 0.9974999999999998 12.305359863281252 0.9404999999999999 Q 12.381859863281253 0.8834999999999998 12.381859863281253 0.7919999999999998 Q 12.381859863281253 0.7214999999999998 12.341359863281253 0.6794999999999999 Q 12.300859863281254 0.6375 12.240859863281253 0.6149999999999999 Q 12.180859863281253 0.5924999999999998 12.078859863281252 0.5684999999999999 Q 11.963359863281253 0.5399999999999999 11.893609863281252 0.5129999999999999 Q 11.823859863281253 0.4859999999999999 11.775109863281253 0.42974999999999985 Q 11.726359863281253 0.37349999999999983 11.726359863281253 0.2789999999999999 Q 11.726359863281253 0.2024999999999999 11.766859863281253 0.13874999999999982 Q 11.807359863281253 0.07499999999999984 11.890609863281252 0.03749999999999987 Q 11.973859863281252 -2.220446049250313e-16 12.098359863281253 -2.220446049250313e-16 Q 12.185359863281253 -2.220446049250313e-16 12.269359863281252 0.025499999999999856 Q 12.353359863281252 0.050999999999999934 12.414859863281253 0.09449999999999992 L 12.386359863281253 0.15599999999999992 Q 12.323359863281253 0.11249999999999982 12.247609863281253 0.08999999999999986 Q 12.171859863281252 0.0674999999999999 12.098359863281253 0.0674999999999999 Q 11.952859863281253 0.0674999999999999 11.877859863281254 0.1259999999999999 Q 11.802859863281252 0.1844999999999999 11.802859863281252 0.27749999999999986 Q 11.802859863281252 0.34799999999999986 11.843359863281252 0.3899999999999999 Q 11.883859863281252 0.43199999999999983 11.943859863281252 0.4544999999999999 Q 12.003859863281253 0.47699999999999987 12.107359863281253 0.5024999999999998 Q 12.222859863281252 0.5309999999999999 12.291859863281253 0.5579999999999998 Q 12.360859863281252 0.5849999999999999 12.409609863281252 0.6397499999999998 Q 12.458359863281252 0.6944999999999999 12.458359863281252 0.7874999999999999 Q 12.458359863281252 0.8639999999999999 12.417109863281253 0.9269999999999998 Q 12.375859863281253 0.9899999999999999 12.290359863281253 1.0274999999999999 Q 12.204859863281253 1.065 12.080359863281252 1.065 Q 11.964859863281253 1.065 11.860609863281253 1.0252499999999998 Z" fill="#000000" fill-rule="nonzero"></path></g><g></g><g clip-path="url(&quot;#SvgjsClipPath1001&quot;)"><g clip-path="url(&quot;#SvgjsClipPath1000&quot;)"><path d=" M 2.4708627194599173 -2.574837298517809 C 1.9682133224376954 -2.4551049164280205 1.5239206690323752 -2.161875163862121 1.216210711662613 -1.746776571015558 C 1.7684351515068515 -1.73389173398769 2.0947310523298652 -1.4829853265381523 2.4335278844219985 -1.2069090977809172 L 2.4459568333613575 -1.2069090977809172 C 2.634214619805758 -1.0564900226827874 2.8353572432780263 -0.9059269829251271 3.08587974496882 -0.7930826839641254 C 3.5880044832968747 -0.5547251960035533 4.140252917251033 -0.4290920364543718 4.692285404215891 -0.45390194611324386 C 5.058258142579346 -0.47671025434398206 5.418329553987755 -0.5571948997502165 5.759183501877146 -0.6923794046234262 C 5.22858717924683 -0.6769014896814785 4.701212856818319 -0.7798943612106335 4.215426463635216 -0.9938653957875685 C 3.566667425814218 -1.2736767074722604 3.01306777305911 -1.7357724231638851 2.62180966497633 -2.3240748557278015 C 2.5592810145207956 -2.399104437452452 2.5214662972844484 -2.4870188562049784 2.4708627194599213 -2.5749572690674203 Z M 6.825793670219341 -5.222827269458913 C 7.00164650183431 -5.072408194360783 7.177019451250842 -4.908960317575254 7.327918408547401 -4.708297576301422 C 7.389568385857846 -4.875568985132873 7.469556573861801 -5.035497078532323 7.566419861167506 -5.1851565168821 L 7.566419861167506 -5.1851565168821 C 7.715594609826674 -5.390754597771346 7.9031699790724925 -5.565521293177866 8.118788265671267 -5.6998061805891975 L 8.118788265671267 -5.6998061805891975 C 8.329900225224964 -5.833290344778866 8.563755165867693 -5.92682256115251 8.808690908245293 -5.975738444686904 C 9.059573321584907 -6.01357715603317 9.310839640683277 -6.01357715603317 9.561362142374065 -5.950448652829603 L 9.762504765846334 -5.900348951313428 L 9.611893737868836 -5.775147685742834 C 9.17280152630466 -5.41106106179339 9.134914826738548 -4.783783046114582 9.097220080051809 -4.181170975435116 C 9.08433524302394 -4.105781482061639 9.08433524302394 -4.018202980848019 9.072410170392931 -3.9428134874745435 C 9.340791277302475 -4.1188505942252505 9.638050206479932 -4.246298329652917 9.950594593521277 -4.319329060363343 C 10.3375984706941 -4.3942814759820905 10.73649500772811 -4.381358563112526 11.117836058874413 -4.281514343126997 L 11.418962138389734 -4.193575930264555 L 11.117836058874413 -4.080803613633319 C 10.678335947441571 -3.9302405738756585 10.465196269008533 -3.4404967962671122 10.251648690706837 -2.976546686824222 L 10.251648690706837 -2.976546686824222 C 10.223675615673304 -2.8989151305034344 10.190140861903512 -2.8234017932843614 10.151305323014949 -2.750594153693082 C 10.431139389348346 -2.6923855128859193 10.69594517015252 -2.577038408476773 10.92914637845142 -2.411773327491021 C 11.200448717760032 -2.2246435152170743 11.427607335398598 -1.9805176064556802 11.594742987674934 -1.6964609225100835 L 11.695086355366808 -1.5205840967851998 L 11.506324692614058 -1.533109022164247 C 10.904336468792554 -1.5832327177903416 10.57794459152985 -1.3323503044507268 10.213833973470486 -1.056274075693488 L 10.213833973470486 -1.056274075693488 C 10.026056069224516 -0.8933060811063918 9.81250849092282 -0.7299541807605516 9.536312291615971 -0.6046089505304302 C 9.004442473248876 -0.35044333727108157 8.418631362816516 -0.22976443665016788 7.829611252896877 -0.2530232578501126 C 7.2804415926503445 -0.2759656007248559 6.745681242157418 -0.4356077423403706 6.273809171474325 -0.7174772436013503 C 5.796512235617656 -0.43716337481603684 5.257950458896827 -0.27772161059259926 4.704978288364387 -0.25302325785010815 C 4.115958973481282 -0.2297741281409733 3.5301501681095084 -0.35045255391227137 2.9982772496452723 -0.6046089505304302 C 2.722201020888038 -0.729858204320867 2.521418309064595 -0.8933060811063962 2.3207555677907585 -1.056274075693488 L 2.3207555677907585 -1.056274075693488 C 1.956644949731398 -1.3323503044507232 1.6303490489083805 -1.5832327177903416 1.0403098918277989 -1.533109022164247 L 0.8396231564440401 -1.5205840967851998 L 0.9398465535863104 -1.696460922510087 C 1.110672012719474 -1.9777391371569788 1.3371602977295853 -2.221153418591832 1.605419168699898 -2.411773327491025 C 1.8386748417201462 -2.57703592755043 2.103526955853475 -2.692381865857757 2.3834041887958963 -2.750594153693082 C 2.3445307256341685 -2.8233998933475095 2.3109559433164986 -2.8989130830025136 2.2829408505544118 -2.976546686824222 L 2.2829408505544118 -2.976546686824222 C 2.0693932722527073 -3.4404967962671122 1.8563255761494395 -3.9302405738756545 1.4167534823868342 -4.080803613633319 L 1.1156513969814366 -4.193575930264555 L 1.4296623135246254 -4.281514343126997 C 1.8065851461280529 -4.381550391238253 2.20133311173658 -4.394481917434994 2.583994947739967 -4.319329060363343 C 2.896565454114613 -4.246264066424295 3.1938579928450346 -4.1188193316132615 3.4622993414179244 -3.9428134874745435 C 3.4522988604652824 -4.021850082625934 3.4482884120652346 -4.101529671438119 3.450302286457156 -4.181170975435116 C 3.412463575110886 -4.783783046114582 3.3618839913962817 -5.41106106179339 2.935772593299661 -5.775147685742834 L 2.7723007224042098 -5.90042093364319 L 2.9729634636780453 -5.950520635159363 C 3.219747865657167 -6.009290973322565 3.4758232310874324 -6.017891006306363 3.7259946094556424 -5.975810427016666 C 3.974406314876269 -5.924760531310236 4.2122052652524955 -5.831426472288851 4.429022030156748 -5.699878162918959 L 4.4290220301567516 -5.699878162918959 C 4.638026319960721 -5.561777987780968 4.820716396116358 -5.387497635376486 4.968505597632648 -5.185228499211861 L 4.968505597632648 -5.185228499211861 C 5.070134047754231 -5.038362104104999 5.150387962913888 -4.877805801519637 5.206863085593223 -4.708369558631183 C 5.35802597809892 -4.909032299905019 5.533182980526153 -5.072480176690544 5.708627912272453 -5.222899251788678 C 5.959894231370817 -5.46140070440878 6.098028322189118 -5.599438818787397 6.260996316776215 -5.900540904192795 C 6.4492541032206185 -5.611939750056517 6.5748872627698 -5.461448692628622 6.82576967610941 -5.222899251788678 Z M 7.478433460085222 -4.4951099096485425 C 7.666691246529619 -4.1812189636549615 7.791820529770449 -3.804703390766161 7.791820529770449 -3.2652198232902645 C 7.780784220653057 -2.7541832996860305 7.642873081174274 -2.253907054514711 7.390495047222777 -1.809401197910769 C 7.233661418913196 -1.540701774393293 7.034400844617882 -1.2991372208203291 6.800431896032265 -1.0940647988199155 C 7.20706019566773 -1.2541825122517212 7.5780674999983155 -1.4930215221670462 7.892163897462322 -1.7968762725317333 C 8.344068963724602 -2.223611517486313 8.658079880267788 -2.7883848768195136 8.808498955365918 -3.4033779082184927 L 8.808498955365918 -3.4033779082184927 C 8.858718627431703 -3.6417593902889878 8.871147576371062 -3.9175716838370853 8.896437368228362 -4.193623918484397 C 8.921247277887236 -4.770922203196637 8.959061995123577 -5.373414303326496 9.335529579792532 -5.787624622902032 C 9.172561585205436 -5.812554503110511 9.009209684859595 -5.800125554171154 8.845785802183986 -5.775195673962673 C 8.63274210019064 -5.737524921385857 8.419530439427835 -5.649586508523415 8.218747727604397 -5.536358303803669 L 8.218747727604397 -5.536358303803669 C 8.032134953036163 -5.408497750811776 7.866931817391952 -5.25191109243842 7.729267885204988 -5.072408194360783 L 7.729267885204988 -5.072408194360783 C 7.615274602202862 -4.894647013988833 7.530568631014202 -4.699732547003447 7.478385471865361 -4.4951099096485425 Z M 6.273929142023932 -0.9559786962214565 C 6.661621442073787 -1.191167263805724 6.984879796136712 -1.5189023779557669 7.214714197937577 -1.9097925538224967 C 7.4531916564477685 -2.3116219126785196 7.578824815996942 -2.788456859149275 7.591229770826378 -3.2777207545593883 C 7.591229770826378 -4.231534612160428 7.114394824355627 -4.683439678422705 6.6881154674895535 -5.084885131519983 C 6.537098355402508 -5.2184634144884265 6.398471601103918 -5.3654260841480355 6.273929142023955 -5.523977343084149 C 6.141313138851853 -5.36843668651137 5.998642108549416 -5.2217580429981885 5.846833985420547 -5.084885131519983 C 5.420458652114782 -4.683439678422705 4.943719682083715 -4.231534612160428 4.956148631023066 -3.2777207545593883 C 4.9476154610000975 -2.3235724263563395 5.450362629419728 -1.4378194629211176 6.273953136133848 -0.9559786962214645 Z M 9.047168366755479 -3.6791662076566674 C 9.037535853144416 -3.5736422542328663 9.020765564557927 -3.468892081690019 8.996972688799612 -3.365635173311907 C 8.848376601725157 -2.710952011869755 8.512529292388486 -2.1136381724914877 8.030369970610394 -1.6465051856534458 C 7.687992527877433 -1.311415224483234 7.277059173305192 -1.0545082045649998 6.825865652549095 -0.8934740398758452 C 7.313268568999238 -0.8921265366118662 7.795812036881377 -0.9903335219195837 8.243917548912082 -1.1820751940121266 C 8.855895360749486 -1.4471793959576624 9.378701697868603 -1.8827208529786894 9.74997984046729 -2.4367511959193497 C 9.875253088367643 -2.6126040275343105 9.975524473729756 -2.8387005253249766 10.075915829641474 -3.0641731762576843 L 10.075915829641474 -3.0641731762576843 C 10.251768661256442 -3.4785034663828314 10.452407408420353 -3.892713785958368 10.791228234622409 -4.143596199297987 C 10.524083908677934 -4.179257041825881 10.252898005115917 -4.170835169701269 9.98848129308739 -4.118666319089504 L 9.98848129308739 -4.118666319089504 C 9.646358639181514 -4.042728014885401 9.325044658839754 -3.892706139890625 9.047168366755479 -3.6791662076566674 Z M 10.063510874812046 -2.5749092808475744 C 10.01326720863634 -2.4869708679851326 9.9755724619496 -2.39905644923261 9.92547276043343 -2.3240268675079556 C 9.526466647980442 -1.7378795120255885 8.969649890175546 -1.2766884247464034 8.319451006945107 -0.9938174075677262 C 7.833661947678241 -0.77985487484084 7.306289562804501 -0.6768623817038852 6.77569396870317 -0.6923314164035803 C 7.116510834755417 -0.557134792588938 7.476552617260379 -0.4766495296322608 7.842496089924733 -0.4538539578933971 C 8.394504582779682 -0.4290440482345259 8.959253948002953 -0.5546292195638651 9.460898804132583 -0.7930346957442831 C 9.699376262642769 -0.9058070123755195 9.900182968576129 -1.0564420344629415 10.101205621498792 -1.2068611095610713 L 10.101205621498792 -1.2068611095610713 C 10.45240740842036 -1.483057308867913 10.778703309243383 -1.7339637163174508 11.318690753027632 -1.7467285827957122 C 11.010814363901982 -2.1618935783247677 10.566333077184627 -2.4551244562476655 10.063510874812057 -2.5747893102979633 Z M 5.733869715909923 -1.0940647988199155 C 5.503516751480385 -1.3024833337911135 5.304893843992742 -1.5434806371539818 5.144310441027778 -1.809401197910777 C 4.889993329237084 -2.2525025204778384 4.755766977055974 -2.7543233161052125 4.7549100311111125 -3.2652198232902645 C 4.742912976150337 -3.804703390766161 4.880879108199193 -4.1812189636549615 5.068776982994768 -4.4951099096485425 C 5.006902359670143 -4.698328601465816 4.918369203073795 -4.8924512431962635 4.805489614825714 -5.072408194360786 L 4.805489614825714 -5.072408194360786 C 4.67089820691527 -5.254746157023164 4.505092252885197 -5.411819496258163 4.315745837217167 -5.536358303803669 L 4.315745837217167 -5.536358303803669 C 4.123562645331349 -5.654495456015246 3.9109053307791677 -5.735495363946328 3.6888277331871846 -5.775147685742834 C 3.52537985640166 -5.800077565951312 3.3619319796161315 -5.812506514890669 3.2114889104080784 -5.78757663468219 C 3.5754795579178356 -5.373366315106654 3.6133182692641017 -4.770874214976795 3.6511329865004485 -4.193575930264555 C 3.663130041461217 -3.9176436661668506 3.675942896159324 -3.641711402069146 3.738447552504928 -3.403329919998651 L 3.738447552504928 -3.403329919998651 C 3.8788423290133576 -2.791952660008716 4.192771854095632 -2.234113082993448 4.642521620238625 -1.7968282843118875 C 4.956554317220498 -1.4930782698868503 5.3274144091109905 -1.254250045641741 5.733869715909923 -1.0940168106000776 Z M 5.708579924052615 -0.8934020575460835 C 5.257530451050342 -1.0545586312967172 4.846715942778483 -1.3114527599251558 4.504363535310385 -1.6464332033236806 C 4.0222971507887255 -2.113634117833148 3.686473341870992 -2.710920987591314 3.537784811231088 -3.36556319098215 C 3.514083205691848 -3.468833807643727 3.4973456255273527 -3.573579957073563 3.4876851097149086 -3.679094225326906 C 3.209764299458208 -3.892546123649894 2.888478434963832 -4.0425586951498556 2.5463961774929156 -4.118594336759747 L 2.5463961774929156 -4.118594336759747 C 2.2819322052229833 -4.170771003647824 2.01069898393832 -4.179200940595285 1.743505271298369 -4.143548211078144 C 2.0947310523298572 -3.8926657977385255 2.2829888387742576 -3.4784554781629855 2.4588416703892255 -3.064125188037846 L 2.4588416703892255 -3.064125188037846 C 2.571613987020462 -2.838580554775373 2.659504411663062 -2.6125560393144682 2.784753665453499 -2.436703207699508 C 3.157814888124612 -1.8794293412438456 3.6856042122619983 -1.4433286610120737 4.303220911838132 -1.1820272057922843 C 4.746900702867082 -0.9903901694581094 5.22528406885156 -0.8921505094546749 5.708579924052623 -0.8934260516560064 Z" fill="#ba8437" transform="matrix(1,0,0,1,0,0)" fill-rule="nonzero"></path></g><g clip-path="url(&quot;#SvgjsClipPath1000&quot;)"><path d=" M 6.273857159694171 -3.6919790623547666 C 5.846762003090762 -3.6790942253268986 6.273857159694171 -2.6001270903751093 6.273857159694171 -2.6001270903751093 C 6.273857159694171 -2.6001270903751093 6.688043485159785 -3.6790942253268986 6.273857159694171 -3.6918590918051595 Z M 6.926496949560044 -3.139610657851006 C 6.700064534230476 -3.4281878178773644 6.374224521495968 -2.5624323436883736 6.374224521495968 -2.5624323436883736 C 6.374224521495968 -2.5624323436883736 7.139300710454175 -2.8386285429952154 6.926496949560044 -3.139610657851006 Z M 6.160484990314895 -2.5623363672486854 C 6.160484990314895 -2.5623363672486854 5.834692965800233 -3.4280918414376766 5.608260550470657 -3.1395146814113217 C 5.3950728838177815 -2.838532566555527 6.160484990314895 -2.5623363672486854 6.160484990314895 -2.5623363672486854 Z" fill="#ba8437" transform="matrix(1,0,0,1,0,0)" fill-rule="evenodd"></path></g></g></g><defs><clipPath id="SvgjsClipPath1001"><path d=" M 0.8396711446638898 -6.001676077512088 h 10.855439204812845 v 5.751676077512088 h -10.855439204812845 Z"></path></clipPath><clipPath id="SvgjsClipPath1000"><path d=" M 0.8396711446638898 -6.001676077512089 L 11.695110349476735 -6.001676077512089 L 11.695110349476735 -0.2499999999999991 L 0.8396711446638898 -0.2499999999999991 Z"></path></clipPath></defs></svg>